<mxfile host="app.diagrams.net" modified="2023-04-28T06:20:00.684Z" agent="Mozilla/5.0 (X11; Linux x86_64) AppleWebKit/537.36 (KHTML, like Gecko) Chrome/112.0.0.0 Safari/537.36" etag="01LLs8PG0i_M55LczyG7" version="21.2.3" type="device" pages="12">
  <diagram id="wqLRpBWplRFAXsK7Tqg0" name="header">
    <mxGraphModel dx="1726" dy="930" grid="1" gridSize="10" guides="1" tooltips="1" connect="1" arrows="1" fold="1" page="1" pageScale="1" pageWidth="850" pageHeight="1100" math="0" shadow="0">
      <root>
        <mxCell id="0" />
        <mxCell id="1" parent="0" />
        <mxCell id="SgzEgF7xM_KXS0xr5GG3-2" value="" style="rounded=0;whiteSpace=wrap;html=1;strokeColor=#666666;" parent="1" vertex="1">
          <mxGeometry x="59.995333333333335" y="378.54838709677415" width="355.642" height="101.61290322580643" as="geometry" />
        </mxCell>
        <mxCell id="SgzEgF7xM_KXS0xr5GG3-3" value="" style="verticalLabelPosition=bottom;shadow=0;dashed=0;align=center;html=1;verticalAlign=top;shape=mxgraph.electrical.opto_electronics.7_segment_display;pointerEvents=1;strokeColor=#666666;" parent="1" vertex="1">
          <mxGeometry x="329.1147153333333" y="387.01612903225805" width="69.58728466666668" height="84.6774193548387" as="geometry" />
        </mxCell>
        <mxCell id="SgzEgF7xM_KXS0xr5GG3-4" value="" style="verticalLabelPosition=bottom;shadow=0;dashed=0;align=center;html=1;verticalAlign=top;shape=mxgraph.electrical.opto_electronics.7_segment_display;pointerEvents=1;strokeColor=#666666;fillColor=default;" parent="1" vertex="1">
          <mxGeometry x="246.28399999999996" y="387.01612903225805" width="69.58728466666668" height="84.6774193548387" as="geometry" />
        </mxCell>
        <mxCell id="SgzEgF7xM_KXS0xr5GG3-5" value="" style="verticalLabelPosition=bottom;shadow=0;dashed=0;align=center;html=1;verticalAlign=top;shape=mxgraph.electrical.opto_electronics.7_segment_display;pointerEvents=1;strokeColor=#666666;" parent="1" vertex="1">
          <mxGeometry x="144.67199999999997" y="387.01612903225805" width="69.58728466666668" height="84.6774193548387" as="geometry" />
        </mxCell>
        <mxCell id="SgzEgF7xM_KXS0xr5GG3-6" value="" style="verticalLabelPosition=bottom;shadow=0;dashed=0;align=center;html=1;verticalAlign=top;shape=mxgraph.electrical.opto_electronics.7_segment_display;pointerEvents=1;strokeColor=#666666;" parent="1" vertex="1">
          <mxGeometry x="59.99533333333329" y="387.01612903225805" width="69.58728466666668" height="84.6774193548387" as="geometry" />
        </mxCell>
        <mxCell id="SgzEgF7xM_KXS0xr5GG3-7" value="" style="ellipse;whiteSpace=wrap;html=1;aspect=fixed;sketch=0;strokeColor=#666666;opacity=60;" parent="1" vertex="1">
          <mxGeometry x="536.6039999999999" y="434.6470967741935" width="16.935333333333336" height="16.935333333333336" as="geometry" />
        </mxCell>
        <mxCell id="SgzEgF7xM_KXS0xr5GG3-8" value="" style="ellipse;whiteSpace=wrap;html=1;aspect=fixed;sketch=0;strokeColor=#666666;opacity=60;" parent="1" vertex="1">
          <mxGeometry x="583.9423333333334" y="434.6470967741935" width="16.935333333333336" height="16.935333333333336" as="geometry" />
        </mxCell>
        <mxCell id="SgzEgF7xM_KXS0xr5GG3-9" value="" style="ellipse;whiteSpace=wrap;html=1;aspect=fixed;sketch=0;strokeColor=#666666;opacity=60;" parent="1" vertex="1">
          <mxGeometry x="632.2806666666667" y="434.6470967741935" width="16.935333333333336" height="16.935333333333336" as="geometry" />
        </mxCell>
        <mxCell id="SgzEgF7xM_KXS0xr5GG3-11" value="" style="endArrow=none;html=1;rounded=0;" parent="1" edge="1">
          <mxGeometry width="50" height="50" relative="1" as="geometry">
            <mxPoint x="263.21933333333334" y="378.54838709677415" as="sourcePoint" />
            <mxPoint x="297.09" y="310.80645161290323" as="targetPoint" />
          </mxGeometry>
        </mxCell>
        <mxCell id="SgzEgF7xM_KXS0xr5GG3-12" value="Countdown Timer" style="text;html=1;strokeColor=none;fillColor=none;align=center;verticalAlign=middle;whiteSpace=wrap;rounded=0;fontSize=16;" parent="1" vertex="1">
          <mxGeometry x="246.28" y="260" width="156.78" height="50.81" as="geometry" />
        </mxCell>
        <mxCell id="SgzEgF7xM_KXS0xr5GG3-14" value="S T R I K E S" style="text;html=1;strokeColor=none;fillColor=none;align=center;verticalAlign=middle;whiteSpace=wrap;rounded=0;fontSize=16;fontColor=#8C8C8C;" parent="1" vertex="1">
          <mxGeometry x="533.1329333333334" y="383.7148387096774" width="118.54733333333336" height="50.80645161290322" as="geometry" />
        </mxCell>
        <mxCell id="SgzEgF7xM_KXS0xr5GG3-17" value="" style="ellipse;whiteSpace=wrap;html=1;aspect=fixed;sketch=0;strokeColor=#424242;opacity=60;" parent="1" vertex="1">
          <mxGeometry x="229.06" y="405.65" width="6.93" height="6.93" as="geometry" />
        </mxCell>
        <mxCell id="SgzEgF7xM_KXS0xr5GG3-18" value="" style="ellipse;whiteSpace=wrap;html=1;aspect=fixed;sketch=0;strokeColor=#424242;opacity=60;" parent="1" vertex="1">
          <mxGeometry x="224.06" y="444.65" width="6.93" height="6.93" as="geometry" />
        </mxCell>
        <mxCell id="zNurhjAjssgiDyzc-ZuG-1" value="" style="endArrow=none;html=1;rounded=0;strokeColor=#000000;" parent="1" edge="1">
          <mxGeometry width="50" height="50" relative="1" as="geometry">
            <mxPoint x="40" y="360" as="sourcePoint" />
            <mxPoint x="1000" y="360" as="targetPoint" />
          </mxGeometry>
        </mxCell>
        <mxCell id="zNurhjAjssgiDyzc-ZuG-2" value="" style="endArrow=none;html=1;rounded=0;" parent="1" edge="1">
          <mxGeometry width="50" height="50" relative="1" as="geometry">
            <mxPoint x="40" y="500" as="sourcePoint" />
            <mxPoint x="40" y="360" as="targetPoint" />
          </mxGeometry>
        </mxCell>
        <mxCell id="zNurhjAjssgiDyzc-ZuG-3" value="" style="endArrow=none;html=1;rounded=0;" parent="1" edge="1">
          <mxGeometry width="50" height="50" relative="1" as="geometry">
            <mxPoint x="40" y="500" as="sourcePoint" />
            <mxPoint x="440" y="500" as="targetPoint" />
          </mxGeometry>
        </mxCell>
        <mxCell id="zNurhjAjssgiDyzc-ZuG-4" value="" style="endArrow=none;html=1;rounded=0;" parent="1" edge="1">
          <mxGeometry width="50" height="50" relative="1" as="geometry">
            <mxPoint x="440" y="500" as="sourcePoint" />
            <mxPoint x="470" y="470" as="targetPoint" />
          </mxGeometry>
        </mxCell>
        <mxCell id="zNurhjAjssgiDyzc-ZuG-5" value="" style="endArrow=none;html=1;rounded=0;" parent="1" edge="1">
          <mxGeometry width="50" height="50" relative="1" as="geometry">
            <mxPoint x="470" y="470" as="sourcePoint" />
            <mxPoint x="720" y="470" as="targetPoint" />
          </mxGeometry>
        </mxCell>
        <mxCell id="zNurhjAjssgiDyzc-ZuG-6" value="Strike Indicators" style="text;html=1;strokeColor=none;fillColor=none;align=center;verticalAlign=middle;whiteSpace=wrap;rounded=0;fontSize=16;" parent="1" vertex="1">
          <mxGeometry x="530" y="260" width="156.78" height="50.81" as="geometry" />
        </mxCell>
        <mxCell id="zNurhjAjssgiDyzc-ZuG-7" value="" style="endArrow=none;html=1;rounded=0;entryX=0.575;entryY=0.961;entryDx=0;entryDy=0;entryPerimeter=0;" parent="1" target="zNurhjAjssgiDyzc-ZuG-6" edge="1">
          <mxGeometry width="50" height="50" relative="1" as="geometry">
            <mxPoint x="590" y="390" as="sourcePoint" />
            <mxPoint x="640" y="340" as="targetPoint" />
          </mxGeometry>
        </mxCell>
        <mxCell id="zNurhjAjssgiDyzc-ZuG-8" value="" style="endArrow=none;html=1;rounded=0;" parent="1" edge="1">
          <mxGeometry width="50" height="50" relative="1" as="geometry">
            <mxPoint x="720" y="470" as="sourcePoint" />
            <mxPoint x="750" y="440" as="targetPoint" />
          </mxGeometry>
        </mxCell>
        <mxCell id="zNurhjAjssgiDyzc-ZuG-9" value="" style="endArrow=none;html=1;rounded=0;" parent="1" edge="1">
          <mxGeometry width="50" height="50" relative="1" as="geometry">
            <mxPoint x="750" y="440" as="sourcePoint" />
            <mxPoint x="1000" y="440" as="targetPoint" />
          </mxGeometry>
        </mxCell>
        <mxCell id="zNurhjAjssgiDyzc-ZuG-10" value="" style="endArrow=none;html=1;rounded=0;" parent="1" edge="1">
          <mxGeometry width="50" height="50" relative="1" as="geometry">
            <mxPoint x="1000" y="440" as="sourcePoint" />
            <mxPoint x="1000" y="360" as="targetPoint" />
          </mxGeometry>
        </mxCell>
        <mxCell id="zNurhjAjssgiDyzc-ZuG-11" value="" style="rounded=0;whiteSpace=wrap;html=1;fontColor=#8C8C8C;" parent="1" vertex="1">
          <mxGeometry x="770" y="370" width="90" height="20" as="geometry" />
        </mxCell>
        <mxCell id="zNurhjAjssgiDyzc-ZuG-12" value="" style="endArrow=none;html=1;rounded=0;entryX=0.575;entryY=0.961;entryDx=0;entryDy=0;entryPerimeter=0;" parent="1" edge="1">
          <mxGeometry width="50" height="50" relative="1" as="geometry">
            <mxPoint x="810" y="370" as="sourcePoint" />
            <mxPoint x="840" y="289" as="targetPoint" />
          </mxGeometry>
        </mxCell>
        <mxCell id="zNurhjAjssgiDyzc-ZuG-13" value="Serial Number" style="text;html=1;strokeColor=none;fillColor=none;align=center;verticalAlign=middle;whiteSpace=wrap;rounded=0;fontSize=16;" parent="1" vertex="1">
          <mxGeometry x="760" y="250" width="156.78" height="50.81" as="geometry" />
        </mxCell>
        <mxCell id="zNurhjAjssgiDyzc-ZuG-14" value="" style="ellipse;whiteSpace=wrap;html=1;aspect=fixed;sketch=0;strokeColor=#666666;opacity=60;" parent="1" vertex="1">
          <mxGeometry x="760.0039999999999" y="412.57709677419354" width="16.935333333333336" height="16.935333333333336" as="geometry" />
        </mxCell>
        <mxCell id="zNurhjAjssgiDyzc-ZuG-15" value="" style="ellipse;whiteSpace=wrap;html=1;aspect=fixed;sketch=0;strokeColor=#666666;opacity=60;" parent="1" vertex="1">
          <mxGeometry x="843.0623333333334" y="412.57709677419354" width="16.935333333333336" height="16.935333333333336" as="geometry" />
        </mxCell>
        <mxCell id="zNurhjAjssgiDyzc-ZuG-16" value="" style="ellipse;whiteSpace=wrap;html=1;aspect=fixed;sketch=0;strokeColor=#666666;opacity=60;" parent="1" vertex="1">
          <mxGeometry x="930.0006666666666" y="412.57709677419354" width="16.935333333333336" height="16.935333333333336" as="geometry" />
        </mxCell>
        <mxCell id="zNurhjAjssgiDyzc-ZuG-19" value="CTRL" style="text;html=1;strokeColor=none;fillColor=none;align=center;verticalAlign=middle;whiteSpace=wrap;rounded=0;fontSize=14;fontColor=#8C8C8C;" parent="1" vertex="1">
          <mxGeometry x="743.7229333333335" y="395.6448387096774" width="118.54733333333336" height="50.80645161290322" as="geometry" />
        </mxCell>
        <mxCell id="zNurhjAjssgiDyzc-ZuG-20" value="ALT" style="text;html=1;strokeColor=none;fillColor=none;align=center;verticalAlign=middle;whiteSpace=wrap;rounded=0;fontSize=14;fontColor=#8C8C8C;" parent="1" vertex="1">
          <mxGeometry x="828.3929333333334" y="396.6448387096774" width="118.54733333333336" height="50.80645161290322" as="geometry" />
        </mxCell>
        <mxCell id="zNurhjAjssgiDyzc-ZuG-21" value="ETP" style="text;html=1;strokeColor=none;fillColor=none;align=center;verticalAlign=middle;whiteSpace=wrap;rounded=0;fontSize=14;fontColor=#8C8C8C;" parent="1" vertex="1">
          <mxGeometry x="910.0029333333334" y="396.6448387096774" width="118.54733333333336" height="50.80645161290322" as="geometry" />
        </mxCell>
        <mxCell id="zNurhjAjssgiDyzc-ZuG-22" value="" style="endArrow=none;html=1;rounded=0;exitX=0.5;exitY=0;exitDx=0;exitDy=0;" parent="1" source="zNurhjAjssgiDyzc-ZuG-23" target="zNurhjAjssgiDyzc-ZuG-19" edge="1">
          <mxGeometry width="50" height="50" relative="1" as="geometry">
            <mxPoint x="800" y="490" as="sourcePoint" />
            <mxPoint x="850" y="440" as="targetPoint" />
          </mxGeometry>
        </mxCell>
        <mxCell id="zNurhjAjssgiDyzc-ZuG-23" value="Misc Indicators" style="text;html=1;strokeColor=none;fillColor=none;align=center;verticalAlign=middle;whiteSpace=wrap;rounded=0;fontSize=16;" parent="1" vertex="1">
          <mxGeometry x="790.16" y="498.99999999999994" width="156.78" height="50.81" as="geometry" />
        </mxCell>
        <mxCell id="zNurhjAjssgiDyzc-ZuG-24" value="" style="endArrow=none;html=1;rounded=0;entryX=0.5;entryY=1;entryDx=0;entryDy=0;exitX=0.5;exitY=0;exitDx=0;exitDy=0;" parent="1" source="zNurhjAjssgiDyzc-ZuG-23" target="zNurhjAjssgiDyzc-ZuG-20" edge="1">
          <mxGeometry width="50" height="50" relative="1" as="geometry">
            <mxPoint x="800" y="490" as="sourcePoint" />
            <mxPoint x="850" y="440" as="targetPoint" />
          </mxGeometry>
        </mxCell>
        <mxCell id="zNurhjAjssgiDyzc-ZuG-25" value="" style="endArrow=none;html=1;rounded=0;exitX=0.5;exitY=0;exitDx=0;exitDy=0;" parent="1" source="zNurhjAjssgiDyzc-ZuG-23" edge="1">
          <mxGeometry width="50" height="50" relative="1" as="geometry">
            <mxPoint x="896" y="499" as="sourcePoint" />
            <mxPoint x="950" y="450" as="targetPoint" />
          </mxGeometry>
        </mxCell>
      </root>
    </mxGraphModel>
  </diagram>
  <diagram id="1pHWRk7HmrSrSJmWEvAO" name="1module">
    <mxGraphModel dx="3354" dy="1887" grid="1" gridSize="10" guides="1" tooltips="1" connect="1" arrows="1" fold="1" page="1" pageScale="1" pageWidth="850" pageHeight="1100" math="0" shadow="0">
      <root>
        <mxCell id="0" />
        <mxCell id="1" parent="0" />
        <mxCell id="QWxU96H4w-IS9YJuF2yH-1" value="" style="group" parent="1" vertex="1" connectable="0">
          <mxGeometry x="720" y="257.1" width="266.13" height="212.9" as="geometry" />
        </mxCell>
        <mxCell id="oA5ZalHXF8mBygFmV5xE-1" value="" style="whiteSpace=wrap;html=1;movable=1;resizable=1;rotatable=1;deletable=1;editable=1;locked=0;connectable=1;imageAspect=1;" parent="QWxU96H4w-IS9YJuF2yH-1" vertex="1">
          <mxGeometry width="266.13" height="212.89999999999995" as="geometry" />
        </mxCell>
        <mxCell id="oA5ZalHXF8mBygFmV5xE-2" value="" style="ellipse;whiteSpace=wrap;html=1;aspect=fixed;sketch=0;strokeColor=#666666;opacity=60;" parent="QWxU96H4w-IS9YJuF2yH-1" vertex="1">
          <mxGeometry x="239.517" y="13.306250000000045" width="13.306131722222222" height="13.306131722222222" as="geometry" />
        </mxCell>
        <mxCell id="oA5ZalHXF8mBygFmV5xE-3" value="Module" style="text;html=1;strokeColor=none;fillColor=none;align=center;verticalAlign=middle;whiteSpace=wrap;rounded=0;fontSize=16;" parent="QWxU96H4w-IS9YJuF2yH-1" vertex="1">
          <mxGeometry x="93.14549999999998" y="86.49062500000002" width="79.839" height="39.91874999999999" as="geometry" />
        </mxCell>
      </root>
    </mxGraphModel>
  </diagram>
  <diagram name="keypad" id="hIo-PTRXRsQap0BLP2fv">
    <mxGraphModel dx="830" dy="447" grid="1" gridSize="10" guides="1" tooltips="1" connect="1" arrows="1" fold="1" page="1" pageScale="1" pageWidth="850" pageHeight="1100" math="0" shadow="0">
      <root>
        <mxCell id="Yvpj0VRX3f143LenfQ_7-0" />
        <mxCell id="Yvpj0VRX3f143LenfQ_7-1" parent="Yvpj0VRX3f143LenfQ_7-0" />
        <mxCell id="Yvpj0VRX3f143LenfQ_7-2" value="" style="group" vertex="1" connectable="0" parent="Yvpj0VRX3f143LenfQ_7-1">
          <mxGeometry x="720" y="260" width="266.13" height="212.9" as="geometry" />
        </mxCell>
        <mxCell id="Yvpj0VRX3f143LenfQ_7-3" value="" style="whiteSpace=wrap;html=1;movable=1;resizable=1;rotatable=1;deletable=1;editable=1;locked=0;connectable=1;imageAspect=1;" vertex="1" parent="Yvpj0VRX3f143LenfQ_7-2">
          <mxGeometry width="266.13" height="212.89999999999995" as="geometry" />
        </mxCell>
        <mxCell id="Yvpj0VRX3f143LenfQ_7-4" value="" style="ellipse;whiteSpace=wrap;html=1;aspect=fixed;sketch=0;strokeColor=#666666;opacity=60;" vertex="1" parent="Yvpj0VRX3f143LenfQ_7-2">
          <mxGeometry x="239.517" y="13.306250000000045" width="13.306131722222222" height="13.306131722222222" as="geometry" />
        </mxCell>
        <mxCell id="AEwwpwKFOh6SuKpYQ4ie-4" value="" style="ellipse;whiteSpace=wrap;html=1;aspect=fixed;strokeColor=#8C8C8C;" vertex="1" parent="Yvpj0VRX3f143LenfQ_7-2">
          <mxGeometry x="63.46999999999999" y="59.99999999999999" width="5" height="5" as="geometry" />
        </mxCell>
        <mxCell id="AEwwpwKFOh6SuKpYQ4ie-16" value="" style="rounded=0;whiteSpace=wrap;html=1;strokeColor=#8C8C8C;fontColor=#8C8C8C;" vertex="1" parent="Yvpj0VRX3f143LenfQ_7-2">
          <mxGeometry x="130" y="41" width="120" height="129" as="geometry" />
        </mxCell>
        <mxCell id="AEwwpwKFOh6SuKpYQ4ie-17" value="1" style="rounded=0;whiteSpace=wrap;html=1;strokeColor=#8C8C8C;fontColor=#8C8C8C;" vertex="1" parent="Yvpj0VRX3f143LenfQ_7-2">
          <mxGeometry x="140" y="50" width="20" height="20" as="geometry" />
        </mxCell>
        <mxCell id="AEwwpwKFOh6SuKpYQ4ie-18" value="2" style="rounded=0;whiteSpace=wrap;html=1;strokeColor=#8C8C8C;fontColor=#8C8C8C;" vertex="1" parent="Yvpj0VRX3f143LenfQ_7-2">
          <mxGeometry x="180" y="49.10000000000002" width="20" height="20" as="geometry" />
        </mxCell>
        <mxCell id="AEwwpwKFOh6SuKpYQ4ie-19" value="3" style="rounded=0;whiteSpace=wrap;html=1;strokeColor=#8C8C8C;fontColor=#8C8C8C;" vertex="1" parent="Yvpj0VRX3f143LenfQ_7-2">
          <mxGeometry x="219.51999999999998" y="49.10000000000002" width="20" height="20" as="geometry" />
        </mxCell>
        <mxCell id="AEwwpwKFOh6SuKpYQ4ie-20" value="4" style="rounded=0;whiteSpace=wrap;html=1;strokeColor=#8C8C8C;fontColor=#8C8C8C;" vertex="1" parent="Yvpj0VRX3f143LenfQ_7-2">
          <mxGeometry x="140" y="80" width="20" height="20" as="geometry" />
        </mxCell>
        <mxCell id="AEwwpwKFOh6SuKpYQ4ie-21" value="7" style="rounded=0;whiteSpace=wrap;html=1;strokeColor=#8C8C8C;fontColor=#8C8C8C;" vertex="1" parent="Yvpj0VRX3f143LenfQ_7-2">
          <mxGeometry x="140" y="110" width="20" height="20" as="geometry" />
        </mxCell>
        <mxCell id="AEwwpwKFOh6SuKpYQ4ie-22" value="*" style="rounded=0;whiteSpace=wrap;html=1;strokeColor=#8C8C8C;fontColor=#8C8C8C;" vertex="1" parent="Yvpj0VRX3f143LenfQ_7-2">
          <mxGeometry x="140" y="140" width="20" height="20" as="geometry" />
        </mxCell>
        <mxCell id="AEwwpwKFOh6SuKpYQ4ie-23" value="5" style="rounded=0;whiteSpace=wrap;html=1;strokeColor=#8C8C8C;fontColor=#8C8C8C;" vertex="1" parent="Yvpj0VRX3f143LenfQ_7-2">
          <mxGeometry x="180" y="80" width="20" height="20" as="geometry" />
        </mxCell>
        <mxCell id="AEwwpwKFOh6SuKpYQ4ie-24" value="8" style="rounded=0;whiteSpace=wrap;html=1;strokeColor=#8C8C8C;fontColor=#8C8C8C;" vertex="1" parent="Yvpj0VRX3f143LenfQ_7-2">
          <mxGeometry x="180" y="110" width="20" height="20" as="geometry" />
        </mxCell>
        <mxCell id="AEwwpwKFOh6SuKpYQ4ie-25" value="0" style="rounded=0;whiteSpace=wrap;html=1;strokeColor=#8C8C8C;fontColor=#8C8C8C;" vertex="1" parent="Yvpj0VRX3f143LenfQ_7-2">
          <mxGeometry x="180" y="140" width="20" height="20" as="geometry" />
        </mxCell>
        <mxCell id="AEwwpwKFOh6SuKpYQ4ie-26" value="#" style="rounded=0;whiteSpace=wrap;html=1;strokeColor=#8C8C8C;fontColor=#8C8C8C;" vertex="1" parent="Yvpj0VRX3f143LenfQ_7-2">
          <mxGeometry x="219.51999999999998" y="140" width="20" height="20" as="geometry" />
        </mxCell>
        <mxCell id="AEwwpwKFOh6SuKpYQ4ie-27" value="9" style="rounded=0;whiteSpace=wrap;html=1;strokeColor=#8C8C8C;fontColor=#8C8C8C;" vertex="1" parent="Yvpj0VRX3f143LenfQ_7-2">
          <mxGeometry x="219.51999999999998" y="110" width="20" height="20" as="geometry" />
        </mxCell>
        <mxCell id="AEwwpwKFOh6SuKpYQ4ie-28" value="6" style="rounded=0;whiteSpace=wrap;html=1;strokeColor=#8C8C8C;fontColor=#8C8C8C;" vertex="1" parent="Yvpj0VRX3f143LenfQ_7-2">
          <mxGeometry x="219.51999999999998" y="80" width="20" height="20" as="geometry" />
        </mxCell>
        <mxCell id="AEwwpwKFOh6SuKpYQ4ie-30" value="" style="whiteSpace=wrap;html=1;aspect=fixed;strokeColor=#8C8C8C;" vertex="1" parent="Yvpj0VRX3f143LenfQ_7-2">
          <mxGeometry x="20" y="130" width="20" height="20" as="geometry" />
        </mxCell>
        <mxCell id="AEwwpwKFOh6SuKpYQ4ie-31" value="" style="whiteSpace=wrap;html=1;aspect=fixed;strokeColor=#8C8C8C;" vertex="1" parent="Yvpj0VRX3f143LenfQ_7-2">
          <mxGeometry x="50.85000000000002" y="130" width="20" height="20" as="geometry" />
        </mxCell>
        <mxCell id="AEwwpwKFOh6SuKpYQ4ie-32" value="" style="whiteSpace=wrap;html=1;aspect=fixed;strokeColor=#8C8C8C;" vertex="1" parent="Yvpj0VRX3f143LenfQ_7-2">
          <mxGeometry x="80" y="130" width="20" height="20" as="geometry" />
        </mxCell>
        <mxCell id="AEwwpwKFOh6SuKpYQ4ie-33" value="" style="ellipse;whiteSpace=wrap;html=1;aspect=fixed;strokeColor=#8C8C8C;" vertex="1" parent="Yvpj0VRX3f143LenfQ_7-2">
          <mxGeometry x="68.47000000000003" y="64.99999999999999" width="5" height="5" as="geometry" />
        </mxCell>
        <mxCell id="AEwwpwKFOh6SuKpYQ4ie-34" value="" style="ellipse;whiteSpace=wrap;html=1;aspect=fixed;strokeColor=#8C8C8C;" vertex="1" parent="Yvpj0VRX3f143LenfQ_7-2">
          <mxGeometry x="73.47000000000003" y="59.999999999999986" width="5" height="5" as="geometry" />
        </mxCell>
        <mxCell id="AEwwpwKFOh6SuKpYQ4ie-35" value="" style="ellipse;whiteSpace=wrap;html=1;aspect=fixed;strokeColor=#8C8C8C;" vertex="1" parent="Yvpj0VRX3f143LenfQ_7-2">
          <mxGeometry x="68.47000000000003" y="54.999999999999986" width="5" height="5" as="geometry" />
        </mxCell>
        <mxCell id="AEwwpwKFOh6SuKpYQ4ie-36" value="" style="ellipse;whiteSpace=wrap;html=1;aspect=fixed;strokeColor=#8C8C8C;" vertex="1" parent="Yvpj0VRX3f143LenfQ_7-2">
          <mxGeometry x="58.47000000000002" y="54.999999999999986" width="5" height="5" as="geometry" />
        </mxCell>
        <mxCell id="AEwwpwKFOh6SuKpYQ4ie-37" value="" style="ellipse;whiteSpace=wrap;html=1;aspect=fixed;strokeColor=#8C8C8C;" vertex="1" parent="Yvpj0VRX3f143LenfQ_7-2">
          <mxGeometry x="58.47000000000002" y="64.99999999999999" width="5" height="5" as="geometry" />
        </mxCell>
        <mxCell id="AEwwpwKFOh6SuKpYQ4ie-38" value="" style="ellipse;whiteSpace=wrap;html=1;aspect=fixed;strokeColor=#8C8C8C;" vertex="1" parent="Yvpj0VRX3f143LenfQ_7-2">
          <mxGeometry x="63.47000000000002" y="69.99999999999999" width="5" height="5" as="geometry" />
        </mxCell>
        <mxCell id="AEwwpwKFOh6SuKpYQ4ie-39" value="" style="ellipse;whiteSpace=wrap;html=1;aspect=fixed;strokeColor=#8C8C8C;" vertex="1" parent="Yvpj0VRX3f143LenfQ_7-2">
          <mxGeometry x="53.22000000000002" y="59.999999999999986" width="5" height="5" as="geometry" />
        </mxCell>
        <mxCell id="AEwwpwKFOh6SuKpYQ4ie-41" value="" style="ellipse;whiteSpace=wrap;html=1;aspect=fixed;strokeColor=#8C8C8C;" vertex="1" parent="Yvpj0VRX3f143LenfQ_7-2">
          <mxGeometry x="63.47000000000002" y="49.999999999999986" width="5" height="5" as="geometry" />
        </mxCell>
        <mxCell id="AEwwpwKFOh6SuKpYQ4ie-42" value="" style="ellipse;whiteSpace=wrap;html=1;aspect=fixed;strokeColor=#8C8C8C;" vertex="1" parent="Yvpj0VRX3f143LenfQ_7-2">
          <mxGeometry x="53.47000000000002" y="49.999999999999986" width="5" height="5" as="geometry" />
        </mxCell>
        <mxCell id="AEwwpwKFOh6SuKpYQ4ie-43" value="" style="ellipse;whiteSpace=wrap;html=1;aspect=fixed;strokeColor=#8C8C8C;" vertex="1" parent="Yvpj0VRX3f143LenfQ_7-2">
          <mxGeometry x="48.22000000000002" y="54.999999999999986" width="5" height="5" as="geometry" />
        </mxCell>
        <mxCell id="AEwwpwKFOh6SuKpYQ4ie-44" value="" style="ellipse;whiteSpace=wrap;html=1;aspect=fixed;strokeColor=#8C8C8C;" vertex="1" parent="Yvpj0VRX3f143LenfQ_7-2">
          <mxGeometry x="43.22000000000002" y="59.999999999999986" width="5" height="5" as="geometry" />
        </mxCell>
        <mxCell id="AEwwpwKFOh6SuKpYQ4ie-45" value="" style="ellipse;whiteSpace=wrap;html=1;aspect=fixed;strokeColor=#8C8C8C;" vertex="1" parent="Yvpj0VRX3f143LenfQ_7-2">
          <mxGeometry x="48.22000000000002" y="64.99999999999999" width="5" height="5" as="geometry" />
        </mxCell>
        <mxCell id="AEwwpwKFOh6SuKpYQ4ie-46" value="" style="ellipse;whiteSpace=wrap;html=1;aspect=fixed;strokeColor=#8C8C8C;" vertex="1" parent="Yvpj0VRX3f143LenfQ_7-2">
          <mxGeometry x="53.47000000000002" y="69.99999999999999" width="5" height="5" as="geometry" />
        </mxCell>
      </root>
    </mxGraphModel>
  </diagram>
  <diagram name="maze" id="mTzfADA7XKhTrsFjMI0I">
    <mxGraphModel dx="1118" dy="629" grid="1" gridSize="10" guides="1" tooltips="1" connect="1" arrows="1" fold="1" page="1" pageScale="1" pageWidth="850" pageHeight="1100" math="0" shadow="0">
      <root>
        <mxCell id="-dPCmLFgkM1KaOQWkTGm-0" />
        <mxCell id="-dPCmLFgkM1KaOQWkTGm-1" parent="-dPCmLFgkM1KaOQWkTGm-0" />
        <mxCell id="-dPCmLFgkM1KaOQWkTGm-3" value="" style="whiteSpace=wrap;html=1;movable=1;resizable=1;rotatable=1;deletable=1;editable=1;locked=0;connectable=1;imageAspect=1;" parent="-dPCmLFgkM1KaOQWkTGm-1" vertex="1">
          <mxGeometry x="720" y="257.1" width="200" height="280" as="geometry" />
        </mxCell>
        <mxCell id="-dPCmLFgkM1KaOQWkTGm-4" value="" style="ellipse;whiteSpace=wrap;html=1;aspect=fixed;sketch=0;strokeColor=#666666;opacity=60;" parent="-dPCmLFgkM1KaOQWkTGm-1" vertex="1">
          <mxGeometry x="896.997" y="266.40625000000006" width="13.306131722222222" height="13.306131722222222" as="geometry" />
        </mxCell>
        <mxCell id="sokPznXd1AUXtTL5Ov5I-90" value="" style="group" parent="-dPCmLFgkM1KaOQWkTGm-1" vertex="1" connectable="0">
          <mxGeometry x="822" y="290" width="16" height="16" as="geometry" />
        </mxCell>
        <mxCell id="sokPznXd1AUXtTL5Ov5I-91" value="" style="whiteSpace=wrap;html=1;aspect=fixed;strokeColor=#666666;" parent="sokPznXd1AUXtTL5Ov5I-90" vertex="1">
          <mxGeometry width="16" height="16" as="geometry" />
        </mxCell>
        <mxCell id="sokPznXd1AUXtTL5Ov5I-92" value="" style="ellipse;whiteSpace=wrap;html=1;aspect=fixed;strokeColor=#666666;" parent="sokPznXd1AUXtTL5Ov5I-90" vertex="1">
          <mxGeometry x="3" y="3" width="10" height="10" as="geometry" />
        </mxCell>
        <mxCell id="sokPznXd1AUXtTL5Ov5I-93" value="" style="group" parent="-dPCmLFgkM1KaOQWkTGm-1" vertex="1" connectable="0">
          <mxGeometry x="842" y="290" width="16" height="16" as="geometry" />
        </mxCell>
        <mxCell id="sokPznXd1AUXtTL5Ov5I-94" value="" style="whiteSpace=wrap;html=1;aspect=fixed;strokeColor=#666666;" parent="sokPznXd1AUXtTL5Ov5I-93" vertex="1">
          <mxGeometry width="16" height="16" as="geometry" />
        </mxCell>
        <mxCell id="sokPznXd1AUXtTL5Ov5I-95" value="" style="ellipse;whiteSpace=wrap;html=1;aspect=fixed;strokeColor=#666666;" parent="sokPznXd1AUXtTL5Ov5I-93" vertex="1">
          <mxGeometry x="3" y="3" width="10" height="10" as="geometry" />
        </mxCell>
        <mxCell id="sokPznXd1AUXtTL5Ov5I-96" value="" style="group" parent="-dPCmLFgkM1KaOQWkTGm-1" vertex="1" connectable="0">
          <mxGeometry x="862" y="290" width="16" height="16" as="geometry" />
        </mxCell>
        <mxCell id="sokPznXd1AUXtTL5Ov5I-97" value="" style="whiteSpace=wrap;html=1;aspect=fixed;strokeColor=#666666;" parent="sokPznXd1AUXtTL5Ov5I-96" vertex="1">
          <mxGeometry width="16" height="16" as="geometry" />
        </mxCell>
        <mxCell id="sokPznXd1AUXtTL5Ov5I-98" value="" style="ellipse;whiteSpace=wrap;html=1;aspect=fixed;strokeColor=#666666;" parent="sokPznXd1AUXtTL5Ov5I-96" vertex="1">
          <mxGeometry x="3" y="3" width="10" height="10" as="geometry" />
        </mxCell>
        <mxCell id="sokPznXd1AUXtTL5Ov5I-99" value="" style="group" parent="-dPCmLFgkM1KaOQWkTGm-1" vertex="1" connectable="0">
          <mxGeometry x="882" y="290" width="16" height="16" as="geometry" />
        </mxCell>
        <mxCell id="sokPznXd1AUXtTL5Ov5I-100" value="" style="whiteSpace=wrap;html=1;aspect=fixed;strokeColor=#666666;" parent="sokPznXd1AUXtTL5Ov5I-99" vertex="1">
          <mxGeometry width="16" height="16" as="geometry" />
        </mxCell>
        <mxCell id="sokPznXd1AUXtTL5Ov5I-101" value="" style="ellipse;whiteSpace=wrap;html=1;aspect=fixed;strokeColor=#666666;" parent="sokPznXd1AUXtTL5Ov5I-99" vertex="1">
          <mxGeometry x="3" y="3" width="10" height="10" as="geometry" />
        </mxCell>
        <mxCell id="sokPznXd1AUXtTL5Ov5I-102" value="" style="group" parent="-dPCmLFgkM1KaOQWkTGm-1" vertex="1" connectable="0">
          <mxGeometry x="742" y="290" width="16" height="16" as="geometry" />
        </mxCell>
        <mxCell id="sokPznXd1AUXtTL5Ov5I-103" value="" style="whiteSpace=wrap;html=1;aspect=fixed;strokeColor=#666666;" parent="sokPznXd1AUXtTL5Ov5I-102" vertex="1">
          <mxGeometry width="16" height="16" as="geometry" />
        </mxCell>
        <mxCell id="sokPznXd1AUXtTL5Ov5I-104" value="" style="ellipse;whiteSpace=wrap;html=1;aspect=fixed;strokeColor=#666666;" parent="sokPznXd1AUXtTL5Ov5I-102" vertex="1">
          <mxGeometry x="3" y="3" width="10" height="10" as="geometry" />
        </mxCell>
        <mxCell id="sokPznXd1AUXtTL5Ov5I-105" value="" style="group" parent="-dPCmLFgkM1KaOQWkTGm-1" vertex="1" connectable="0">
          <mxGeometry x="762" y="290" width="16" height="16" as="geometry" />
        </mxCell>
        <mxCell id="sokPznXd1AUXtTL5Ov5I-106" value="" style="whiteSpace=wrap;html=1;aspect=fixed;strokeColor=#666666;" parent="sokPznXd1AUXtTL5Ov5I-105" vertex="1">
          <mxGeometry width="16" height="16" as="geometry" />
        </mxCell>
        <mxCell id="sokPznXd1AUXtTL5Ov5I-107" value="" style="ellipse;whiteSpace=wrap;html=1;aspect=fixed;strokeColor=#666666;" parent="sokPznXd1AUXtTL5Ov5I-105" vertex="1">
          <mxGeometry x="3" y="3" width="10" height="10" as="geometry" />
        </mxCell>
        <mxCell id="sokPznXd1AUXtTL5Ov5I-108" value="" style="group" parent="-dPCmLFgkM1KaOQWkTGm-1" vertex="1" connectable="0">
          <mxGeometry x="782" y="290" width="16" height="16" as="geometry" />
        </mxCell>
        <mxCell id="sokPznXd1AUXtTL5Ov5I-109" value="" style="whiteSpace=wrap;html=1;aspect=fixed;strokeColor=#666666;" parent="sokPznXd1AUXtTL5Ov5I-108" vertex="1">
          <mxGeometry width="16" height="16" as="geometry" />
        </mxCell>
        <mxCell id="sokPznXd1AUXtTL5Ov5I-110" value="" style="ellipse;whiteSpace=wrap;html=1;aspect=fixed;strokeColor=#666666;" parent="sokPznXd1AUXtTL5Ov5I-108" vertex="1">
          <mxGeometry x="3" y="3" width="10" height="10" as="geometry" />
        </mxCell>
        <mxCell id="sokPznXd1AUXtTL5Ov5I-111" value="" style="group" parent="-dPCmLFgkM1KaOQWkTGm-1" vertex="1" connectable="0">
          <mxGeometry x="802" y="290" width="16" height="16" as="geometry" />
        </mxCell>
        <mxCell id="sokPznXd1AUXtTL5Ov5I-112" value="" style="whiteSpace=wrap;html=1;aspect=fixed;strokeColor=#666666;" parent="sokPznXd1AUXtTL5Ov5I-111" vertex="1">
          <mxGeometry width="16" height="16" as="geometry" />
        </mxCell>
        <mxCell id="sokPznXd1AUXtTL5Ov5I-113" value="" style="ellipse;whiteSpace=wrap;html=1;aspect=fixed;strokeColor=#666666;" parent="sokPznXd1AUXtTL5Ov5I-111" vertex="1">
          <mxGeometry x="3" y="3" width="10" height="10" as="geometry" />
        </mxCell>
        <mxCell id="sokPznXd1AUXtTL5Ov5I-114" value="" style="group" parent="-dPCmLFgkM1KaOQWkTGm-1" vertex="1" connectable="0">
          <mxGeometry x="822" y="310" width="16" height="16" as="geometry" />
        </mxCell>
        <mxCell id="sokPznXd1AUXtTL5Ov5I-115" value="" style="whiteSpace=wrap;html=1;aspect=fixed;strokeColor=#666666;" parent="sokPznXd1AUXtTL5Ov5I-114" vertex="1">
          <mxGeometry width="16" height="16" as="geometry" />
        </mxCell>
        <mxCell id="sokPznXd1AUXtTL5Ov5I-116" value="" style="ellipse;whiteSpace=wrap;html=1;aspect=fixed;strokeColor=#666666;" parent="sokPznXd1AUXtTL5Ov5I-114" vertex="1">
          <mxGeometry x="3" y="3" width="10" height="10" as="geometry" />
        </mxCell>
        <mxCell id="sokPznXd1AUXtTL5Ov5I-117" value="" style="group" parent="-dPCmLFgkM1KaOQWkTGm-1" vertex="1" connectable="0">
          <mxGeometry x="842" y="310" width="16" height="16" as="geometry" />
        </mxCell>
        <mxCell id="sokPznXd1AUXtTL5Ov5I-118" value="" style="whiteSpace=wrap;html=1;aspect=fixed;strokeColor=#666666;" parent="sokPznXd1AUXtTL5Ov5I-117" vertex="1">
          <mxGeometry width="16" height="16" as="geometry" />
        </mxCell>
        <mxCell id="sokPznXd1AUXtTL5Ov5I-119" value="" style="ellipse;whiteSpace=wrap;html=1;aspect=fixed;strokeColor=#666666;" parent="sokPznXd1AUXtTL5Ov5I-117" vertex="1">
          <mxGeometry x="3" y="3" width="10" height="10" as="geometry" />
        </mxCell>
        <mxCell id="sokPznXd1AUXtTL5Ov5I-120" value="" style="group" parent="-dPCmLFgkM1KaOQWkTGm-1" vertex="1" connectable="0">
          <mxGeometry x="862" y="310" width="16" height="16" as="geometry" />
        </mxCell>
        <mxCell id="sokPznXd1AUXtTL5Ov5I-121" value="" style="whiteSpace=wrap;html=1;aspect=fixed;strokeColor=#666666;" parent="sokPznXd1AUXtTL5Ov5I-120" vertex="1">
          <mxGeometry width="16" height="16" as="geometry" />
        </mxCell>
        <mxCell id="sokPznXd1AUXtTL5Ov5I-122" value="" style="ellipse;whiteSpace=wrap;html=1;aspect=fixed;strokeColor=#666666;" parent="sokPznXd1AUXtTL5Ov5I-120" vertex="1">
          <mxGeometry x="3" y="3" width="10" height="10" as="geometry" />
        </mxCell>
        <mxCell id="sokPznXd1AUXtTL5Ov5I-123" value="" style="group" parent="-dPCmLFgkM1KaOQWkTGm-1" vertex="1" connectable="0">
          <mxGeometry x="882" y="310" width="16" height="16" as="geometry" />
        </mxCell>
        <mxCell id="sokPznXd1AUXtTL5Ov5I-124" value="" style="whiteSpace=wrap;html=1;aspect=fixed;strokeColor=#666666;" parent="sokPznXd1AUXtTL5Ov5I-123" vertex="1">
          <mxGeometry width="16" height="16" as="geometry" />
        </mxCell>
        <mxCell id="sokPznXd1AUXtTL5Ov5I-125" value="" style="ellipse;whiteSpace=wrap;html=1;aspect=fixed;strokeColor=#666666;" parent="sokPznXd1AUXtTL5Ov5I-123" vertex="1">
          <mxGeometry x="3" y="3" width="10" height="10" as="geometry" />
        </mxCell>
        <mxCell id="sokPznXd1AUXtTL5Ov5I-126" value="" style="group" parent="-dPCmLFgkM1KaOQWkTGm-1" vertex="1" connectable="0">
          <mxGeometry x="742" y="310" width="16" height="16" as="geometry" />
        </mxCell>
        <mxCell id="sokPznXd1AUXtTL5Ov5I-127" value="" style="whiteSpace=wrap;html=1;aspect=fixed;strokeColor=#666666;" parent="sokPznXd1AUXtTL5Ov5I-126" vertex="1">
          <mxGeometry width="16" height="16" as="geometry" />
        </mxCell>
        <mxCell id="sokPznXd1AUXtTL5Ov5I-128" value="" style="ellipse;whiteSpace=wrap;html=1;aspect=fixed;strokeColor=#666666;" parent="sokPznXd1AUXtTL5Ov5I-126" vertex="1">
          <mxGeometry x="3" y="3" width="10" height="10" as="geometry" />
        </mxCell>
        <mxCell id="sokPznXd1AUXtTL5Ov5I-129" value="" style="group" parent="-dPCmLFgkM1KaOQWkTGm-1" vertex="1" connectable="0">
          <mxGeometry x="762" y="310" width="16" height="16" as="geometry" />
        </mxCell>
        <mxCell id="sokPznXd1AUXtTL5Ov5I-130" value="" style="whiteSpace=wrap;html=1;aspect=fixed;strokeColor=#666666;" parent="sokPznXd1AUXtTL5Ov5I-129" vertex="1">
          <mxGeometry width="16" height="16" as="geometry" />
        </mxCell>
        <mxCell id="sokPznXd1AUXtTL5Ov5I-131" value="" style="ellipse;whiteSpace=wrap;html=1;aspect=fixed;strokeColor=#666666;" parent="sokPznXd1AUXtTL5Ov5I-129" vertex="1">
          <mxGeometry x="3" y="3" width="10" height="10" as="geometry" />
        </mxCell>
        <mxCell id="sokPznXd1AUXtTL5Ov5I-132" value="" style="group" parent="-dPCmLFgkM1KaOQWkTGm-1" vertex="1" connectable="0">
          <mxGeometry x="782" y="310" width="16" height="16" as="geometry" />
        </mxCell>
        <mxCell id="sokPznXd1AUXtTL5Ov5I-133" value="" style="whiteSpace=wrap;html=1;aspect=fixed;strokeColor=#666666;" parent="sokPznXd1AUXtTL5Ov5I-132" vertex="1">
          <mxGeometry width="16" height="16" as="geometry" />
        </mxCell>
        <mxCell id="sokPznXd1AUXtTL5Ov5I-134" value="" style="ellipse;whiteSpace=wrap;html=1;aspect=fixed;strokeColor=#666666;" parent="sokPznXd1AUXtTL5Ov5I-132" vertex="1">
          <mxGeometry x="3" y="3" width="10" height="10" as="geometry" />
        </mxCell>
        <mxCell id="sokPznXd1AUXtTL5Ov5I-135" value="" style="group" parent="-dPCmLFgkM1KaOQWkTGm-1" vertex="1" connectable="0">
          <mxGeometry x="802" y="310" width="16" height="16" as="geometry" />
        </mxCell>
        <mxCell id="sokPznXd1AUXtTL5Ov5I-136" value="" style="whiteSpace=wrap;html=1;aspect=fixed;strokeColor=#666666;" parent="sokPznXd1AUXtTL5Ov5I-135" vertex="1">
          <mxGeometry width="16" height="16" as="geometry" />
        </mxCell>
        <mxCell id="sokPznXd1AUXtTL5Ov5I-137" value="" style="ellipse;whiteSpace=wrap;html=1;aspect=fixed;strokeColor=#666666;" parent="sokPznXd1AUXtTL5Ov5I-135" vertex="1">
          <mxGeometry x="3" y="3" width="10" height="10" as="geometry" />
        </mxCell>
        <mxCell id="sokPznXd1AUXtTL5Ov5I-138" value="" style="group" parent="-dPCmLFgkM1KaOQWkTGm-1" vertex="1" connectable="0">
          <mxGeometry x="822" y="330" width="16" height="16" as="geometry" />
        </mxCell>
        <mxCell id="sokPznXd1AUXtTL5Ov5I-139" value="" style="whiteSpace=wrap;html=1;aspect=fixed;strokeColor=#666666;" parent="sokPznXd1AUXtTL5Ov5I-138" vertex="1">
          <mxGeometry width="16" height="16" as="geometry" />
        </mxCell>
        <mxCell id="sokPznXd1AUXtTL5Ov5I-140" value="" style="ellipse;whiteSpace=wrap;html=1;aspect=fixed;strokeColor=#666666;" parent="sokPznXd1AUXtTL5Ov5I-138" vertex="1">
          <mxGeometry x="3" y="3" width="10" height="10" as="geometry" />
        </mxCell>
        <mxCell id="sokPznXd1AUXtTL5Ov5I-141" value="" style="group" parent="-dPCmLFgkM1KaOQWkTGm-1" vertex="1" connectable="0">
          <mxGeometry x="842" y="330" width="16" height="16" as="geometry" />
        </mxCell>
        <mxCell id="sokPznXd1AUXtTL5Ov5I-142" value="" style="whiteSpace=wrap;html=1;aspect=fixed;strokeColor=#666666;" parent="sokPznXd1AUXtTL5Ov5I-141" vertex="1">
          <mxGeometry width="16" height="16" as="geometry" />
        </mxCell>
        <mxCell id="sokPznXd1AUXtTL5Ov5I-143" value="" style="ellipse;whiteSpace=wrap;html=1;aspect=fixed;strokeColor=#666666;" parent="sokPznXd1AUXtTL5Ov5I-141" vertex="1">
          <mxGeometry x="3" y="3" width="10" height="10" as="geometry" />
        </mxCell>
        <mxCell id="sokPznXd1AUXtTL5Ov5I-144" value="" style="group" parent="-dPCmLFgkM1KaOQWkTGm-1" vertex="1" connectable="0">
          <mxGeometry x="862" y="330" width="16" height="16" as="geometry" />
        </mxCell>
        <mxCell id="sokPznXd1AUXtTL5Ov5I-145" value="" style="whiteSpace=wrap;html=1;aspect=fixed;strokeColor=#666666;" parent="sokPznXd1AUXtTL5Ov5I-144" vertex="1">
          <mxGeometry width="16" height="16" as="geometry" />
        </mxCell>
        <mxCell id="sokPznXd1AUXtTL5Ov5I-146" value="" style="ellipse;whiteSpace=wrap;html=1;aspect=fixed;strokeColor=#666666;" parent="sokPznXd1AUXtTL5Ov5I-144" vertex="1">
          <mxGeometry x="3" y="3" width="10" height="10" as="geometry" />
        </mxCell>
        <mxCell id="sokPznXd1AUXtTL5Ov5I-147" value="" style="group" parent="-dPCmLFgkM1KaOQWkTGm-1" vertex="1" connectable="0">
          <mxGeometry x="882" y="330" width="16" height="16" as="geometry" />
        </mxCell>
        <mxCell id="sokPznXd1AUXtTL5Ov5I-148" value="" style="whiteSpace=wrap;html=1;aspect=fixed;strokeColor=#666666;" parent="sokPznXd1AUXtTL5Ov5I-147" vertex="1">
          <mxGeometry width="16" height="16" as="geometry" />
        </mxCell>
        <mxCell id="sokPznXd1AUXtTL5Ov5I-149" value="" style="ellipse;whiteSpace=wrap;html=1;aspect=fixed;strokeColor=#666666;" parent="sokPznXd1AUXtTL5Ov5I-147" vertex="1">
          <mxGeometry x="3" y="3" width="10" height="10" as="geometry" />
        </mxCell>
        <mxCell id="sokPznXd1AUXtTL5Ov5I-150" value="" style="group" parent="-dPCmLFgkM1KaOQWkTGm-1" vertex="1" connectable="0">
          <mxGeometry x="742" y="330" width="16" height="16" as="geometry" />
        </mxCell>
        <mxCell id="sokPznXd1AUXtTL5Ov5I-151" value="" style="whiteSpace=wrap;html=1;aspect=fixed;strokeColor=#666666;" parent="sokPznXd1AUXtTL5Ov5I-150" vertex="1">
          <mxGeometry width="16" height="16" as="geometry" />
        </mxCell>
        <mxCell id="sokPznXd1AUXtTL5Ov5I-152" value="" style="ellipse;whiteSpace=wrap;html=1;aspect=fixed;strokeColor=#666666;" parent="sokPznXd1AUXtTL5Ov5I-150" vertex="1">
          <mxGeometry x="3" y="3" width="10" height="10" as="geometry" />
        </mxCell>
        <mxCell id="sokPznXd1AUXtTL5Ov5I-153" value="" style="group" parent="-dPCmLFgkM1KaOQWkTGm-1" vertex="1" connectable="0">
          <mxGeometry x="762" y="330" width="16" height="16" as="geometry" />
        </mxCell>
        <mxCell id="sokPznXd1AUXtTL5Ov5I-154" value="" style="whiteSpace=wrap;html=1;aspect=fixed;strokeColor=#666666;" parent="sokPznXd1AUXtTL5Ov5I-153" vertex="1">
          <mxGeometry width="16" height="16" as="geometry" />
        </mxCell>
        <mxCell id="sokPznXd1AUXtTL5Ov5I-155" value="" style="ellipse;whiteSpace=wrap;html=1;aspect=fixed;strokeColor=#666666;" parent="sokPznXd1AUXtTL5Ov5I-153" vertex="1">
          <mxGeometry x="3" y="3" width="10" height="10" as="geometry" />
        </mxCell>
        <mxCell id="sokPznXd1AUXtTL5Ov5I-156" value="" style="group" parent="-dPCmLFgkM1KaOQWkTGm-1" vertex="1" connectable="0">
          <mxGeometry x="782" y="330" width="16" height="16" as="geometry" />
        </mxCell>
        <mxCell id="sokPznXd1AUXtTL5Ov5I-157" value="" style="whiteSpace=wrap;html=1;aspect=fixed;strokeColor=#666666;" parent="sokPznXd1AUXtTL5Ov5I-156" vertex="1">
          <mxGeometry width="16" height="16" as="geometry" />
        </mxCell>
        <mxCell id="sokPznXd1AUXtTL5Ov5I-158" value="" style="ellipse;whiteSpace=wrap;html=1;aspect=fixed;strokeColor=#666666;" parent="sokPznXd1AUXtTL5Ov5I-156" vertex="1">
          <mxGeometry x="3" y="3" width="10" height="10" as="geometry" />
        </mxCell>
        <mxCell id="sokPznXd1AUXtTL5Ov5I-159" value="" style="group" parent="-dPCmLFgkM1KaOQWkTGm-1" vertex="1" connectable="0">
          <mxGeometry x="802" y="330" width="16" height="16" as="geometry" />
        </mxCell>
        <mxCell id="sokPznXd1AUXtTL5Ov5I-160" value="" style="whiteSpace=wrap;html=1;aspect=fixed;strokeColor=#666666;" parent="sokPznXd1AUXtTL5Ov5I-159" vertex="1">
          <mxGeometry width="16" height="16" as="geometry" />
        </mxCell>
        <mxCell id="sokPznXd1AUXtTL5Ov5I-161" value="" style="ellipse;whiteSpace=wrap;html=1;aspect=fixed;strokeColor=#666666;" parent="sokPznXd1AUXtTL5Ov5I-159" vertex="1">
          <mxGeometry x="3" y="3" width="10" height="10" as="geometry" />
        </mxCell>
        <mxCell id="sokPznXd1AUXtTL5Ov5I-186" value="" style="group" parent="-dPCmLFgkM1KaOQWkTGm-1" vertex="1" connectable="0">
          <mxGeometry x="822" y="350" width="16" height="16" as="geometry" />
        </mxCell>
        <mxCell id="sokPznXd1AUXtTL5Ov5I-187" value="" style="whiteSpace=wrap;html=1;aspect=fixed;strokeColor=#666666;" parent="sokPznXd1AUXtTL5Ov5I-186" vertex="1">
          <mxGeometry width="16" height="16" as="geometry" />
        </mxCell>
        <mxCell id="sokPznXd1AUXtTL5Ov5I-188" value="" style="ellipse;whiteSpace=wrap;html=1;aspect=fixed;strokeColor=#666666;" parent="sokPznXd1AUXtTL5Ov5I-186" vertex="1">
          <mxGeometry x="3" y="3" width="10" height="10" as="geometry" />
        </mxCell>
        <mxCell id="sokPznXd1AUXtTL5Ov5I-189" value="" style="group" parent="-dPCmLFgkM1KaOQWkTGm-1" vertex="1" connectable="0">
          <mxGeometry x="842" y="350" width="16" height="16" as="geometry" />
        </mxCell>
        <mxCell id="sokPznXd1AUXtTL5Ov5I-190" value="" style="whiteSpace=wrap;html=1;aspect=fixed;strokeColor=#666666;" parent="sokPznXd1AUXtTL5Ov5I-189" vertex="1">
          <mxGeometry width="16" height="16" as="geometry" />
        </mxCell>
        <mxCell id="sokPznXd1AUXtTL5Ov5I-191" value="" style="ellipse;whiteSpace=wrap;html=1;aspect=fixed;strokeColor=#666666;" parent="sokPznXd1AUXtTL5Ov5I-189" vertex="1">
          <mxGeometry x="3" y="3" width="10" height="10" as="geometry" />
        </mxCell>
        <mxCell id="sokPznXd1AUXtTL5Ov5I-192" value="" style="group" parent="-dPCmLFgkM1KaOQWkTGm-1" vertex="1" connectable="0">
          <mxGeometry x="862" y="350" width="16" height="16" as="geometry" />
        </mxCell>
        <mxCell id="sokPznXd1AUXtTL5Ov5I-193" value="" style="whiteSpace=wrap;html=1;aspect=fixed;strokeColor=#666666;" parent="sokPznXd1AUXtTL5Ov5I-192" vertex="1">
          <mxGeometry width="16" height="16" as="geometry" />
        </mxCell>
        <mxCell id="sokPznXd1AUXtTL5Ov5I-194" value="" style="ellipse;whiteSpace=wrap;html=1;aspect=fixed;strokeColor=#666666;" parent="sokPznXd1AUXtTL5Ov5I-192" vertex="1">
          <mxGeometry x="3" y="3" width="10" height="10" as="geometry" />
        </mxCell>
        <mxCell id="sokPznXd1AUXtTL5Ov5I-195" value="" style="group" parent="-dPCmLFgkM1KaOQWkTGm-1" vertex="1" connectable="0">
          <mxGeometry x="882" y="350" width="16" height="16" as="geometry" />
        </mxCell>
        <mxCell id="sokPznXd1AUXtTL5Ov5I-196" value="" style="whiteSpace=wrap;html=1;aspect=fixed;strokeColor=#666666;" parent="sokPznXd1AUXtTL5Ov5I-195" vertex="1">
          <mxGeometry width="16" height="16" as="geometry" />
        </mxCell>
        <mxCell id="sokPznXd1AUXtTL5Ov5I-197" value="" style="ellipse;whiteSpace=wrap;html=1;aspect=fixed;strokeColor=#666666;" parent="sokPznXd1AUXtTL5Ov5I-195" vertex="1">
          <mxGeometry x="3" y="3" width="10" height="10" as="geometry" />
        </mxCell>
        <mxCell id="sokPznXd1AUXtTL5Ov5I-198" value="" style="group" parent="-dPCmLFgkM1KaOQWkTGm-1" vertex="1" connectable="0">
          <mxGeometry x="742" y="350" width="16" height="16" as="geometry" />
        </mxCell>
        <mxCell id="sokPznXd1AUXtTL5Ov5I-199" value="" style="whiteSpace=wrap;html=1;aspect=fixed;strokeColor=#666666;" parent="sokPznXd1AUXtTL5Ov5I-198" vertex="1">
          <mxGeometry width="16" height="16" as="geometry" />
        </mxCell>
        <mxCell id="sokPznXd1AUXtTL5Ov5I-200" value="" style="ellipse;whiteSpace=wrap;html=1;aspect=fixed;strokeColor=#666666;" parent="sokPznXd1AUXtTL5Ov5I-198" vertex="1">
          <mxGeometry x="3" y="3" width="10" height="10" as="geometry" />
        </mxCell>
        <mxCell id="sokPznXd1AUXtTL5Ov5I-201" value="" style="group" parent="-dPCmLFgkM1KaOQWkTGm-1" vertex="1" connectable="0">
          <mxGeometry x="762" y="350" width="16" height="16" as="geometry" />
        </mxCell>
        <mxCell id="sokPznXd1AUXtTL5Ov5I-202" value="" style="whiteSpace=wrap;html=1;aspect=fixed;strokeColor=#666666;" parent="sokPznXd1AUXtTL5Ov5I-201" vertex="1">
          <mxGeometry width="16" height="16" as="geometry" />
        </mxCell>
        <mxCell id="sokPznXd1AUXtTL5Ov5I-203" value="" style="ellipse;whiteSpace=wrap;html=1;aspect=fixed;strokeColor=#666666;" parent="sokPznXd1AUXtTL5Ov5I-201" vertex="1">
          <mxGeometry x="3" y="3" width="10" height="10" as="geometry" />
        </mxCell>
        <mxCell id="sokPznXd1AUXtTL5Ov5I-204" value="" style="group" parent="-dPCmLFgkM1KaOQWkTGm-1" vertex="1" connectable="0">
          <mxGeometry x="782" y="350" width="16" height="16" as="geometry" />
        </mxCell>
        <mxCell id="sokPznXd1AUXtTL5Ov5I-205" value="" style="whiteSpace=wrap;html=1;aspect=fixed;strokeColor=#666666;" parent="sokPznXd1AUXtTL5Ov5I-204" vertex="1">
          <mxGeometry width="16" height="16" as="geometry" />
        </mxCell>
        <mxCell id="sokPznXd1AUXtTL5Ov5I-206" value="" style="ellipse;whiteSpace=wrap;html=1;aspect=fixed;strokeColor=#666666;" parent="sokPznXd1AUXtTL5Ov5I-204" vertex="1">
          <mxGeometry x="3" y="3" width="10" height="10" as="geometry" />
        </mxCell>
        <mxCell id="sokPznXd1AUXtTL5Ov5I-207" value="" style="group" parent="-dPCmLFgkM1KaOQWkTGm-1" vertex="1" connectable="0">
          <mxGeometry x="802" y="350" width="16" height="16" as="geometry" />
        </mxCell>
        <mxCell id="sokPznXd1AUXtTL5Ov5I-208" value="" style="whiteSpace=wrap;html=1;aspect=fixed;strokeColor=#666666;" parent="sokPznXd1AUXtTL5Ov5I-207" vertex="1">
          <mxGeometry width="16" height="16" as="geometry" />
        </mxCell>
        <mxCell id="sokPznXd1AUXtTL5Ov5I-209" value="" style="ellipse;whiteSpace=wrap;html=1;aspect=fixed;strokeColor=#666666;" parent="sokPznXd1AUXtTL5Ov5I-207" vertex="1">
          <mxGeometry x="3" y="3" width="10" height="10" as="geometry" />
        </mxCell>
        <mxCell id="sokPznXd1AUXtTL5Ov5I-210" value="" style="group" parent="-dPCmLFgkM1KaOQWkTGm-1" vertex="1" connectable="0">
          <mxGeometry x="822" y="370" width="16" height="16" as="geometry" />
        </mxCell>
        <mxCell id="sokPznXd1AUXtTL5Ov5I-211" value="" style="whiteSpace=wrap;html=1;aspect=fixed;strokeColor=#666666;" parent="sokPznXd1AUXtTL5Ov5I-210" vertex="1">
          <mxGeometry width="16" height="16" as="geometry" />
        </mxCell>
        <mxCell id="sokPznXd1AUXtTL5Ov5I-212" value="" style="ellipse;whiteSpace=wrap;html=1;aspect=fixed;strokeColor=#666666;" parent="sokPznXd1AUXtTL5Ov5I-210" vertex="1">
          <mxGeometry x="3" y="3" width="10" height="10" as="geometry" />
        </mxCell>
        <mxCell id="sokPznXd1AUXtTL5Ov5I-213" value="" style="group" parent="-dPCmLFgkM1KaOQWkTGm-1" vertex="1" connectable="0">
          <mxGeometry x="842" y="370" width="16" height="16" as="geometry" />
        </mxCell>
        <mxCell id="sokPznXd1AUXtTL5Ov5I-214" value="" style="whiteSpace=wrap;html=1;aspect=fixed;strokeColor=#666666;" parent="sokPznXd1AUXtTL5Ov5I-213" vertex="1">
          <mxGeometry width="16" height="16" as="geometry" />
        </mxCell>
        <mxCell id="sokPznXd1AUXtTL5Ov5I-215" value="" style="ellipse;whiteSpace=wrap;html=1;aspect=fixed;strokeColor=#666666;" parent="sokPznXd1AUXtTL5Ov5I-213" vertex="1">
          <mxGeometry x="3" y="3" width="10" height="10" as="geometry" />
        </mxCell>
        <mxCell id="sokPznXd1AUXtTL5Ov5I-216" value="" style="group" parent="-dPCmLFgkM1KaOQWkTGm-1" vertex="1" connectable="0">
          <mxGeometry x="862" y="370" width="16" height="16" as="geometry" />
        </mxCell>
        <mxCell id="sokPznXd1AUXtTL5Ov5I-217" value="" style="whiteSpace=wrap;html=1;aspect=fixed;strokeColor=#666666;" parent="sokPznXd1AUXtTL5Ov5I-216" vertex="1">
          <mxGeometry width="16" height="16" as="geometry" />
        </mxCell>
        <mxCell id="sokPznXd1AUXtTL5Ov5I-218" value="" style="ellipse;whiteSpace=wrap;html=1;aspect=fixed;strokeColor=#666666;" parent="sokPznXd1AUXtTL5Ov5I-216" vertex="1">
          <mxGeometry x="3" y="3" width="10" height="10" as="geometry" />
        </mxCell>
        <mxCell id="sokPznXd1AUXtTL5Ov5I-219" value="" style="group" parent="-dPCmLFgkM1KaOQWkTGm-1" vertex="1" connectable="0">
          <mxGeometry x="882" y="370" width="16" height="16" as="geometry" />
        </mxCell>
        <mxCell id="sokPznXd1AUXtTL5Ov5I-220" value="" style="whiteSpace=wrap;html=1;aspect=fixed;strokeColor=#666666;" parent="sokPznXd1AUXtTL5Ov5I-219" vertex="1">
          <mxGeometry width="16" height="16" as="geometry" />
        </mxCell>
        <mxCell id="sokPznXd1AUXtTL5Ov5I-221" value="" style="ellipse;whiteSpace=wrap;html=1;aspect=fixed;strokeColor=#666666;" parent="sokPznXd1AUXtTL5Ov5I-219" vertex="1">
          <mxGeometry x="3" y="3" width="10" height="10" as="geometry" />
        </mxCell>
        <mxCell id="sokPznXd1AUXtTL5Ov5I-222" value="" style="group" parent="-dPCmLFgkM1KaOQWkTGm-1" vertex="1" connectable="0">
          <mxGeometry x="742" y="370" width="16" height="16" as="geometry" />
        </mxCell>
        <mxCell id="sokPznXd1AUXtTL5Ov5I-223" value="" style="whiteSpace=wrap;html=1;aspect=fixed;strokeColor=#666666;" parent="sokPznXd1AUXtTL5Ov5I-222" vertex="1">
          <mxGeometry width="16" height="16" as="geometry" />
        </mxCell>
        <mxCell id="sokPznXd1AUXtTL5Ov5I-224" value="" style="ellipse;whiteSpace=wrap;html=1;aspect=fixed;strokeColor=#666666;" parent="sokPznXd1AUXtTL5Ov5I-222" vertex="1">
          <mxGeometry x="3" y="3" width="10" height="10" as="geometry" />
        </mxCell>
        <mxCell id="sokPznXd1AUXtTL5Ov5I-225" value="" style="group" parent="-dPCmLFgkM1KaOQWkTGm-1" vertex="1" connectable="0">
          <mxGeometry x="762" y="370" width="16" height="16" as="geometry" />
        </mxCell>
        <mxCell id="sokPznXd1AUXtTL5Ov5I-226" value="" style="whiteSpace=wrap;html=1;aspect=fixed;strokeColor=#666666;" parent="sokPznXd1AUXtTL5Ov5I-225" vertex="1">
          <mxGeometry width="16" height="16" as="geometry" />
        </mxCell>
        <mxCell id="sokPznXd1AUXtTL5Ov5I-227" value="" style="ellipse;whiteSpace=wrap;html=1;aspect=fixed;strokeColor=#666666;" parent="sokPznXd1AUXtTL5Ov5I-225" vertex="1">
          <mxGeometry x="3" y="3" width="10" height="10" as="geometry" />
        </mxCell>
        <mxCell id="sokPznXd1AUXtTL5Ov5I-228" value="" style="group" parent="-dPCmLFgkM1KaOQWkTGm-1" vertex="1" connectable="0">
          <mxGeometry x="782" y="370" width="16" height="16" as="geometry" />
        </mxCell>
        <mxCell id="sokPznXd1AUXtTL5Ov5I-229" value="" style="whiteSpace=wrap;html=1;aspect=fixed;strokeColor=#666666;" parent="sokPznXd1AUXtTL5Ov5I-228" vertex="1">
          <mxGeometry width="16" height="16" as="geometry" />
        </mxCell>
        <mxCell id="sokPznXd1AUXtTL5Ov5I-230" value="" style="ellipse;whiteSpace=wrap;html=1;aspect=fixed;strokeColor=#666666;" parent="sokPznXd1AUXtTL5Ov5I-228" vertex="1">
          <mxGeometry x="3" y="3" width="10" height="10" as="geometry" />
        </mxCell>
        <mxCell id="sokPznXd1AUXtTL5Ov5I-231" value="" style="group" parent="-dPCmLFgkM1KaOQWkTGm-1" vertex="1" connectable="0">
          <mxGeometry x="802" y="370" width="16" height="16" as="geometry" />
        </mxCell>
        <mxCell id="sokPznXd1AUXtTL5Ov5I-232" value="" style="whiteSpace=wrap;html=1;aspect=fixed;strokeColor=#666666;" parent="sokPznXd1AUXtTL5Ov5I-231" vertex="1">
          <mxGeometry width="16" height="16" as="geometry" />
        </mxCell>
        <mxCell id="sokPznXd1AUXtTL5Ov5I-233" value="" style="ellipse;whiteSpace=wrap;html=1;aspect=fixed;strokeColor=#666666;" parent="sokPznXd1AUXtTL5Ov5I-231" vertex="1">
          <mxGeometry x="3" y="3" width="10" height="10" as="geometry" />
        </mxCell>
        <mxCell id="sokPznXd1AUXtTL5Ov5I-234" value="" style="group" parent="-dPCmLFgkM1KaOQWkTGm-1" vertex="1" connectable="0">
          <mxGeometry x="822" y="390" width="16" height="16" as="geometry" />
        </mxCell>
        <mxCell id="sokPznXd1AUXtTL5Ov5I-235" value="" style="whiteSpace=wrap;html=1;aspect=fixed;strokeColor=#666666;" parent="sokPznXd1AUXtTL5Ov5I-234" vertex="1">
          <mxGeometry width="16" height="16" as="geometry" />
        </mxCell>
        <mxCell id="sokPznXd1AUXtTL5Ov5I-236" value="" style="ellipse;whiteSpace=wrap;html=1;aspect=fixed;strokeColor=#666666;" parent="sokPznXd1AUXtTL5Ov5I-234" vertex="1">
          <mxGeometry x="3" y="3" width="10" height="10" as="geometry" />
        </mxCell>
        <mxCell id="sokPznXd1AUXtTL5Ov5I-237" value="" style="group" parent="-dPCmLFgkM1KaOQWkTGm-1" vertex="1" connectable="0">
          <mxGeometry x="842" y="390" width="16" height="16" as="geometry" />
        </mxCell>
        <mxCell id="sokPznXd1AUXtTL5Ov5I-238" value="" style="whiteSpace=wrap;html=1;aspect=fixed;strokeColor=#666666;" parent="sokPznXd1AUXtTL5Ov5I-237" vertex="1">
          <mxGeometry width="16" height="16" as="geometry" />
        </mxCell>
        <mxCell id="sokPznXd1AUXtTL5Ov5I-239" value="" style="ellipse;whiteSpace=wrap;html=1;aspect=fixed;strokeColor=#666666;" parent="sokPznXd1AUXtTL5Ov5I-237" vertex="1">
          <mxGeometry x="3" y="3" width="10" height="10" as="geometry" />
        </mxCell>
        <mxCell id="sokPznXd1AUXtTL5Ov5I-240" value="" style="group" parent="-dPCmLFgkM1KaOQWkTGm-1" vertex="1" connectable="0">
          <mxGeometry x="862" y="390" width="16" height="16" as="geometry" />
        </mxCell>
        <mxCell id="sokPznXd1AUXtTL5Ov5I-241" value="" style="whiteSpace=wrap;html=1;aspect=fixed;strokeColor=#666666;" parent="sokPznXd1AUXtTL5Ov5I-240" vertex="1">
          <mxGeometry width="16" height="16" as="geometry" />
        </mxCell>
        <mxCell id="sokPznXd1AUXtTL5Ov5I-242" value="" style="ellipse;whiteSpace=wrap;html=1;aspect=fixed;strokeColor=#666666;" parent="sokPznXd1AUXtTL5Ov5I-240" vertex="1">
          <mxGeometry x="3" y="3" width="10" height="10" as="geometry" />
        </mxCell>
        <mxCell id="sokPznXd1AUXtTL5Ov5I-243" value="" style="group" parent="-dPCmLFgkM1KaOQWkTGm-1" vertex="1" connectable="0">
          <mxGeometry x="882" y="390" width="16" height="16" as="geometry" />
        </mxCell>
        <mxCell id="sokPznXd1AUXtTL5Ov5I-244" value="" style="whiteSpace=wrap;html=1;aspect=fixed;strokeColor=#666666;" parent="sokPznXd1AUXtTL5Ov5I-243" vertex="1">
          <mxGeometry width="16" height="16" as="geometry" />
        </mxCell>
        <mxCell id="sokPznXd1AUXtTL5Ov5I-245" value="" style="ellipse;whiteSpace=wrap;html=1;aspect=fixed;strokeColor=#666666;" parent="sokPznXd1AUXtTL5Ov5I-243" vertex="1">
          <mxGeometry x="3" y="3" width="10" height="10" as="geometry" />
        </mxCell>
        <mxCell id="sokPznXd1AUXtTL5Ov5I-246" value="" style="group" parent="-dPCmLFgkM1KaOQWkTGm-1" vertex="1" connectable="0">
          <mxGeometry x="742" y="390" width="16" height="16" as="geometry" />
        </mxCell>
        <mxCell id="sokPznXd1AUXtTL5Ov5I-247" value="" style="whiteSpace=wrap;html=1;aspect=fixed;strokeColor=#666666;" parent="sokPznXd1AUXtTL5Ov5I-246" vertex="1">
          <mxGeometry width="16" height="16" as="geometry" />
        </mxCell>
        <mxCell id="sokPznXd1AUXtTL5Ov5I-248" value="" style="ellipse;whiteSpace=wrap;html=1;aspect=fixed;strokeColor=#666666;" parent="sokPznXd1AUXtTL5Ov5I-246" vertex="1">
          <mxGeometry x="3" y="3" width="10" height="10" as="geometry" />
        </mxCell>
        <mxCell id="sokPznXd1AUXtTL5Ov5I-249" value="" style="group" parent="-dPCmLFgkM1KaOQWkTGm-1" vertex="1" connectable="0">
          <mxGeometry x="762" y="390" width="16" height="16" as="geometry" />
        </mxCell>
        <mxCell id="sokPznXd1AUXtTL5Ov5I-250" value="" style="whiteSpace=wrap;html=1;aspect=fixed;strokeColor=#666666;" parent="sokPznXd1AUXtTL5Ov5I-249" vertex="1">
          <mxGeometry width="16" height="16" as="geometry" />
        </mxCell>
        <mxCell id="sokPznXd1AUXtTL5Ov5I-251" value="" style="ellipse;whiteSpace=wrap;html=1;aspect=fixed;strokeColor=#666666;" parent="sokPznXd1AUXtTL5Ov5I-249" vertex="1">
          <mxGeometry x="3" y="3" width="10" height="10" as="geometry" />
        </mxCell>
        <mxCell id="sokPznXd1AUXtTL5Ov5I-252" value="" style="group" parent="-dPCmLFgkM1KaOQWkTGm-1" vertex="1" connectable="0">
          <mxGeometry x="782" y="390" width="16" height="16" as="geometry" />
        </mxCell>
        <mxCell id="sokPznXd1AUXtTL5Ov5I-253" value="" style="whiteSpace=wrap;html=1;aspect=fixed;strokeColor=#666666;" parent="sokPznXd1AUXtTL5Ov5I-252" vertex="1">
          <mxGeometry width="16" height="16" as="geometry" />
        </mxCell>
        <mxCell id="sokPznXd1AUXtTL5Ov5I-254" value="" style="ellipse;whiteSpace=wrap;html=1;aspect=fixed;strokeColor=#666666;" parent="sokPznXd1AUXtTL5Ov5I-252" vertex="1">
          <mxGeometry x="3" y="3" width="10" height="10" as="geometry" />
        </mxCell>
        <mxCell id="sokPznXd1AUXtTL5Ov5I-255" value="" style="group" parent="-dPCmLFgkM1KaOQWkTGm-1" vertex="1" connectable="0">
          <mxGeometry x="802" y="390" width="16" height="16" as="geometry" />
        </mxCell>
        <mxCell id="sokPznXd1AUXtTL5Ov5I-256" value="" style="whiteSpace=wrap;html=1;aspect=fixed;strokeColor=#666666;" parent="sokPznXd1AUXtTL5Ov5I-255" vertex="1">
          <mxGeometry width="16" height="16" as="geometry" />
        </mxCell>
        <mxCell id="sokPznXd1AUXtTL5Ov5I-257" value="" style="ellipse;whiteSpace=wrap;html=1;aspect=fixed;strokeColor=#666666;" parent="sokPznXd1AUXtTL5Ov5I-255" vertex="1">
          <mxGeometry x="3" y="3" width="10" height="10" as="geometry" />
        </mxCell>
        <mxCell id="sokPznXd1AUXtTL5Ov5I-258" value="" style="group" parent="-dPCmLFgkM1KaOQWkTGm-1" vertex="1" connectable="0">
          <mxGeometry x="822" y="410" width="16" height="16" as="geometry" />
        </mxCell>
        <mxCell id="sokPznXd1AUXtTL5Ov5I-259" value="" style="whiteSpace=wrap;html=1;aspect=fixed;strokeColor=#666666;" parent="sokPznXd1AUXtTL5Ov5I-258" vertex="1">
          <mxGeometry width="16" height="16" as="geometry" />
        </mxCell>
        <mxCell id="sokPznXd1AUXtTL5Ov5I-260" value="" style="ellipse;whiteSpace=wrap;html=1;aspect=fixed;strokeColor=#666666;" parent="sokPznXd1AUXtTL5Ov5I-258" vertex="1">
          <mxGeometry x="3" y="3" width="10" height="10" as="geometry" />
        </mxCell>
        <mxCell id="sokPznXd1AUXtTL5Ov5I-261" value="" style="group" parent="-dPCmLFgkM1KaOQWkTGm-1" vertex="1" connectable="0">
          <mxGeometry x="842" y="410" width="16" height="16" as="geometry" />
        </mxCell>
        <mxCell id="sokPznXd1AUXtTL5Ov5I-262" value="" style="whiteSpace=wrap;html=1;aspect=fixed;strokeColor=#666666;" parent="sokPznXd1AUXtTL5Ov5I-261" vertex="1">
          <mxGeometry width="16" height="16" as="geometry" />
        </mxCell>
        <mxCell id="sokPznXd1AUXtTL5Ov5I-263" value="" style="ellipse;whiteSpace=wrap;html=1;aspect=fixed;strokeColor=#666666;" parent="sokPznXd1AUXtTL5Ov5I-261" vertex="1">
          <mxGeometry x="3" y="3" width="10" height="10" as="geometry" />
        </mxCell>
        <mxCell id="sokPznXd1AUXtTL5Ov5I-264" value="" style="group" parent="-dPCmLFgkM1KaOQWkTGm-1" vertex="1" connectable="0">
          <mxGeometry x="862" y="410" width="16" height="16" as="geometry" />
        </mxCell>
        <mxCell id="sokPznXd1AUXtTL5Ov5I-265" value="" style="whiteSpace=wrap;html=1;aspect=fixed;strokeColor=#666666;" parent="sokPznXd1AUXtTL5Ov5I-264" vertex="1">
          <mxGeometry width="16" height="16" as="geometry" />
        </mxCell>
        <mxCell id="sokPznXd1AUXtTL5Ov5I-266" value="" style="ellipse;whiteSpace=wrap;html=1;aspect=fixed;strokeColor=#666666;" parent="sokPznXd1AUXtTL5Ov5I-264" vertex="1">
          <mxGeometry x="3" y="3" width="10" height="10" as="geometry" />
        </mxCell>
        <mxCell id="sokPznXd1AUXtTL5Ov5I-267" value="" style="group" parent="-dPCmLFgkM1KaOQWkTGm-1" vertex="1" connectable="0">
          <mxGeometry x="882" y="410" width="16" height="16" as="geometry" />
        </mxCell>
        <mxCell id="sokPznXd1AUXtTL5Ov5I-268" value="" style="whiteSpace=wrap;html=1;aspect=fixed;strokeColor=#666666;" parent="sokPznXd1AUXtTL5Ov5I-267" vertex="1">
          <mxGeometry width="16" height="16" as="geometry" />
        </mxCell>
        <mxCell id="sokPznXd1AUXtTL5Ov5I-269" value="" style="ellipse;whiteSpace=wrap;html=1;aspect=fixed;strokeColor=#666666;" parent="sokPznXd1AUXtTL5Ov5I-267" vertex="1">
          <mxGeometry x="3" y="3" width="10" height="10" as="geometry" />
        </mxCell>
        <mxCell id="sokPznXd1AUXtTL5Ov5I-270" value="" style="group" parent="-dPCmLFgkM1KaOQWkTGm-1" vertex="1" connectable="0">
          <mxGeometry x="742" y="410" width="16" height="16" as="geometry" />
        </mxCell>
        <mxCell id="sokPznXd1AUXtTL5Ov5I-271" value="" style="whiteSpace=wrap;html=1;aspect=fixed;strokeColor=#666666;" parent="sokPznXd1AUXtTL5Ov5I-270" vertex="1">
          <mxGeometry width="16" height="16" as="geometry" />
        </mxCell>
        <mxCell id="sokPznXd1AUXtTL5Ov5I-272" value="" style="ellipse;whiteSpace=wrap;html=1;aspect=fixed;strokeColor=#666666;" parent="sokPznXd1AUXtTL5Ov5I-270" vertex="1">
          <mxGeometry x="3" y="3" width="10" height="10" as="geometry" />
        </mxCell>
        <mxCell id="sokPznXd1AUXtTL5Ov5I-273" value="" style="group" parent="-dPCmLFgkM1KaOQWkTGm-1" vertex="1" connectable="0">
          <mxGeometry x="762" y="410" width="16" height="16" as="geometry" />
        </mxCell>
        <mxCell id="sokPznXd1AUXtTL5Ov5I-274" value="" style="whiteSpace=wrap;html=1;aspect=fixed;strokeColor=#666666;" parent="sokPznXd1AUXtTL5Ov5I-273" vertex="1">
          <mxGeometry width="16" height="16" as="geometry" />
        </mxCell>
        <mxCell id="sokPznXd1AUXtTL5Ov5I-275" value="" style="ellipse;whiteSpace=wrap;html=1;aspect=fixed;strokeColor=#666666;" parent="sokPznXd1AUXtTL5Ov5I-273" vertex="1">
          <mxGeometry x="3" y="3" width="10" height="10" as="geometry" />
        </mxCell>
        <mxCell id="sokPznXd1AUXtTL5Ov5I-276" value="" style="group" parent="-dPCmLFgkM1KaOQWkTGm-1" vertex="1" connectable="0">
          <mxGeometry x="782" y="410" width="16" height="16" as="geometry" />
        </mxCell>
        <mxCell id="sokPznXd1AUXtTL5Ov5I-277" value="" style="whiteSpace=wrap;html=1;aspect=fixed;strokeColor=#666666;" parent="sokPznXd1AUXtTL5Ov5I-276" vertex="1">
          <mxGeometry width="16" height="16" as="geometry" />
        </mxCell>
        <mxCell id="sokPznXd1AUXtTL5Ov5I-278" value="" style="ellipse;whiteSpace=wrap;html=1;aspect=fixed;strokeColor=#666666;" parent="sokPznXd1AUXtTL5Ov5I-276" vertex="1">
          <mxGeometry x="3" y="3" width="10" height="10" as="geometry" />
        </mxCell>
        <mxCell id="sokPznXd1AUXtTL5Ov5I-279" value="" style="group" parent="-dPCmLFgkM1KaOQWkTGm-1" vertex="1" connectable="0">
          <mxGeometry x="802" y="410" width="16" height="16" as="geometry" />
        </mxCell>
        <mxCell id="sokPznXd1AUXtTL5Ov5I-280" value="" style="whiteSpace=wrap;html=1;aspect=fixed;strokeColor=#666666;" parent="sokPznXd1AUXtTL5Ov5I-279" vertex="1">
          <mxGeometry width="16" height="16" as="geometry" />
        </mxCell>
        <mxCell id="sokPznXd1AUXtTL5Ov5I-281" value="" style="ellipse;whiteSpace=wrap;html=1;aspect=fixed;strokeColor=#666666;" parent="sokPznXd1AUXtTL5Ov5I-279" vertex="1">
          <mxGeometry x="3" y="3" width="10" height="10" as="geometry" />
        </mxCell>
        <mxCell id="sokPznXd1AUXtTL5Ov5I-282" value="" style="group" parent="-dPCmLFgkM1KaOQWkTGm-1" vertex="1" connectable="0">
          <mxGeometry x="822" y="430" width="16" height="16" as="geometry" />
        </mxCell>
        <mxCell id="sokPznXd1AUXtTL5Ov5I-283" value="" style="whiteSpace=wrap;html=1;aspect=fixed;strokeColor=#666666;" parent="sokPznXd1AUXtTL5Ov5I-282" vertex="1">
          <mxGeometry width="16" height="16" as="geometry" />
        </mxCell>
        <mxCell id="sokPznXd1AUXtTL5Ov5I-284" value="" style="ellipse;whiteSpace=wrap;html=1;aspect=fixed;strokeColor=#666666;" parent="sokPznXd1AUXtTL5Ov5I-282" vertex="1">
          <mxGeometry x="3" y="3" width="10" height="10" as="geometry" />
        </mxCell>
        <mxCell id="sokPznXd1AUXtTL5Ov5I-285" value="" style="group" parent="-dPCmLFgkM1KaOQWkTGm-1" vertex="1" connectable="0">
          <mxGeometry x="842" y="430" width="16" height="16" as="geometry" />
        </mxCell>
        <mxCell id="sokPznXd1AUXtTL5Ov5I-286" value="" style="whiteSpace=wrap;html=1;aspect=fixed;strokeColor=#666666;" parent="sokPznXd1AUXtTL5Ov5I-285" vertex="1">
          <mxGeometry width="16" height="16" as="geometry" />
        </mxCell>
        <mxCell id="sokPznXd1AUXtTL5Ov5I-287" value="" style="ellipse;whiteSpace=wrap;html=1;aspect=fixed;strokeColor=#666666;" parent="sokPznXd1AUXtTL5Ov5I-285" vertex="1">
          <mxGeometry x="3" y="3" width="10" height="10" as="geometry" />
        </mxCell>
        <mxCell id="sokPznXd1AUXtTL5Ov5I-288" value="" style="group" parent="-dPCmLFgkM1KaOQWkTGm-1" vertex="1" connectable="0">
          <mxGeometry x="862" y="430" width="16" height="16" as="geometry" />
        </mxCell>
        <mxCell id="sokPznXd1AUXtTL5Ov5I-289" value="" style="whiteSpace=wrap;html=1;aspect=fixed;strokeColor=#666666;" parent="sokPznXd1AUXtTL5Ov5I-288" vertex="1">
          <mxGeometry width="16" height="16" as="geometry" />
        </mxCell>
        <mxCell id="sokPznXd1AUXtTL5Ov5I-290" value="" style="ellipse;whiteSpace=wrap;html=1;aspect=fixed;strokeColor=#666666;" parent="sokPznXd1AUXtTL5Ov5I-288" vertex="1">
          <mxGeometry x="3" y="3" width="10" height="10" as="geometry" />
        </mxCell>
        <mxCell id="sokPznXd1AUXtTL5Ov5I-291" value="" style="group" parent="-dPCmLFgkM1KaOQWkTGm-1" vertex="1" connectable="0">
          <mxGeometry x="882" y="430" width="16" height="16" as="geometry" />
        </mxCell>
        <mxCell id="sokPznXd1AUXtTL5Ov5I-292" value="" style="whiteSpace=wrap;html=1;aspect=fixed;strokeColor=#666666;" parent="sokPznXd1AUXtTL5Ov5I-291" vertex="1">
          <mxGeometry width="16" height="16" as="geometry" />
        </mxCell>
        <mxCell id="sokPznXd1AUXtTL5Ov5I-293" value="" style="ellipse;whiteSpace=wrap;html=1;aspect=fixed;strokeColor=#666666;" parent="sokPznXd1AUXtTL5Ov5I-291" vertex="1">
          <mxGeometry x="3" y="3" width="10" height="10" as="geometry" />
        </mxCell>
        <mxCell id="sokPznXd1AUXtTL5Ov5I-294" value="" style="group" parent="-dPCmLFgkM1KaOQWkTGm-1" vertex="1" connectable="0">
          <mxGeometry x="742" y="430" width="16" height="16" as="geometry" />
        </mxCell>
        <mxCell id="sokPznXd1AUXtTL5Ov5I-295" value="" style="whiteSpace=wrap;html=1;aspect=fixed;strokeColor=#666666;" parent="sokPznXd1AUXtTL5Ov5I-294" vertex="1">
          <mxGeometry width="16" height="16" as="geometry" />
        </mxCell>
        <mxCell id="sokPznXd1AUXtTL5Ov5I-296" value="" style="ellipse;whiteSpace=wrap;html=1;aspect=fixed;strokeColor=#666666;" parent="sokPznXd1AUXtTL5Ov5I-294" vertex="1">
          <mxGeometry x="3" y="3" width="10" height="10" as="geometry" />
        </mxCell>
        <mxCell id="sokPznXd1AUXtTL5Ov5I-297" value="" style="group" parent="-dPCmLFgkM1KaOQWkTGm-1" vertex="1" connectable="0">
          <mxGeometry x="762" y="430" width="16" height="16" as="geometry" />
        </mxCell>
        <mxCell id="sokPznXd1AUXtTL5Ov5I-298" value="" style="whiteSpace=wrap;html=1;aspect=fixed;strokeColor=#666666;" parent="sokPznXd1AUXtTL5Ov5I-297" vertex="1">
          <mxGeometry width="16" height="16" as="geometry" />
        </mxCell>
        <mxCell id="sokPznXd1AUXtTL5Ov5I-299" value="" style="ellipse;whiteSpace=wrap;html=1;aspect=fixed;strokeColor=#666666;" parent="sokPznXd1AUXtTL5Ov5I-297" vertex="1">
          <mxGeometry x="3" y="3" width="10" height="10" as="geometry" />
        </mxCell>
        <mxCell id="sokPznXd1AUXtTL5Ov5I-300" value="" style="group" parent="-dPCmLFgkM1KaOQWkTGm-1" vertex="1" connectable="0">
          <mxGeometry x="782" y="430" width="16" height="16" as="geometry" />
        </mxCell>
        <mxCell id="sokPznXd1AUXtTL5Ov5I-301" value="" style="whiteSpace=wrap;html=1;aspect=fixed;strokeColor=#666666;" parent="sokPznXd1AUXtTL5Ov5I-300" vertex="1">
          <mxGeometry width="16" height="16" as="geometry" />
        </mxCell>
        <mxCell id="sokPznXd1AUXtTL5Ov5I-302" value="" style="ellipse;whiteSpace=wrap;html=1;aspect=fixed;strokeColor=#666666;" parent="sokPznXd1AUXtTL5Ov5I-300" vertex="1">
          <mxGeometry x="3" y="3" width="10" height="10" as="geometry" />
        </mxCell>
        <mxCell id="sokPznXd1AUXtTL5Ov5I-303" value="" style="group" parent="-dPCmLFgkM1KaOQWkTGm-1" vertex="1" connectable="0">
          <mxGeometry x="802" y="430" width="16" height="16" as="geometry" />
        </mxCell>
        <mxCell id="sokPznXd1AUXtTL5Ov5I-304" value="" style="whiteSpace=wrap;html=1;aspect=fixed;strokeColor=#666666;" parent="sokPznXd1AUXtTL5Ov5I-303" vertex="1">
          <mxGeometry width="16" height="16" as="geometry" />
        </mxCell>
        <mxCell id="sokPznXd1AUXtTL5Ov5I-305" value="" style="ellipse;whiteSpace=wrap;html=1;aspect=fixed;strokeColor=#666666;" parent="sokPznXd1AUXtTL5Ov5I-303" vertex="1">
          <mxGeometry x="3" y="3" width="10" height="10" as="geometry" />
        </mxCell>
        <mxCell id="FPaf2N_hK8-Z7oMJIDtr-15" value="" style="group" vertex="1" connectable="0" parent="-dPCmLFgkM1KaOQWkTGm-1">
          <mxGeometry x="795" y="460" width="50" height="50" as="geometry" />
        </mxCell>
        <mxCell id="FPaf2N_hK8-Z7oMJIDtr-3" value="" style="endArrow=none;html=1;rounded=0;strokeColor=#8C8C8C;" edge="1" parent="FPaf2N_hK8-Z7oMJIDtr-15">
          <mxGeometry width="50" height="50" relative="1" as="geometry">
            <mxPoint x="16.666666666666668" y="16.666666666666668" as="sourcePoint" />
            <mxPoint x="16.666666666666668" as="targetPoint" />
          </mxGeometry>
        </mxCell>
        <mxCell id="FPaf2N_hK8-Z7oMJIDtr-4" value="" style="endArrow=none;html=1;rounded=0;strokeColor=#8C8C8C;" edge="1" parent="FPaf2N_hK8-Z7oMJIDtr-15">
          <mxGeometry width="50" height="50" relative="1" as="geometry">
            <mxPoint x="33.333333333333336" y="16.666666666666668" as="sourcePoint" />
            <mxPoint x="33.333333333333336" as="targetPoint" />
          </mxGeometry>
        </mxCell>
        <mxCell id="FPaf2N_hK8-Z7oMJIDtr-5" value="" style="endArrow=none;html=1;rounded=0;strokeColor=#8C8C8C;" edge="1" parent="FPaf2N_hK8-Z7oMJIDtr-15">
          <mxGeometry width="50" height="50" relative="1" as="geometry">
            <mxPoint x="50" y="33.333333333333336" as="sourcePoint" />
            <mxPoint x="50" y="16.666666666666668" as="targetPoint" />
          </mxGeometry>
        </mxCell>
        <mxCell id="FPaf2N_hK8-Z7oMJIDtr-6" value="" style="endArrow=none;html=1;rounded=0;strokeColor=#8C8C8C;" edge="1" parent="FPaf2N_hK8-Z7oMJIDtr-15">
          <mxGeometry width="50" height="50" relative="1" as="geometry">
            <mxPoint x="33.333333333333336" y="50" as="sourcePoint" />
            <mxPoint x="33.333333333333336" y="33.333333333333336" as="targetPoint" />
          </mxGeometry>
        </mxCell>
        <mxCell id="FPaf2N_hK8-Z7oMJIDtr-7" value="" style="endArrow=none;html=1;rounded=0;strokeColor=#8C8C8C;" edge="1" parent="FPaf2N_hK8-Z7oMJIDtr-15">
          <mxGeometry width="50" height="50" relative="1" as="geometry">
            <mxPoint x="16.666666666666668" y="50" as="sourcePoint" />
            <mxPoint x="16.666666666666668" y="33.333333333333336" as="targetPoint" />
          </mxGeometry>
        </mxCell>
        <mxCell id="FPaf2N_hK8-Z7oMJIDtr-8" value="" style="endArrow=none;html=1;rounded=0;strokeColor=#8C8C8C;" edge="1" parent="FPaf2N_hK8-Z7oMJIDtr-15">
          <mxGeometry width="50" height="50" relative="1" as="geometry">
            <mxPoint y="33.333333333333336" as="sourcePoint" />
            <mxPoint y="16.666666666666668" as="targetPoint" />
          </mxGeometry>
        </mxCell>
        <mxCell id="FPaf2N_hK8-Z7oMJIDtr-9" value="" style="endArrow=none;html=1;rounded=0;strokeColor=#8C8C8C;" edge="1" parent="FPaf2N_hK8-Z7oMJIDtr-15">
          <mxGeometry width="50" height="50" relative="1" as="geometry">
            <mxPoint x="33.333333333333336" y="33.333333333333336" as="sourcePoint" />
            <mxPoint x="50" y="33.333333333333336" as="targetPoint" />
          </mxGeometry>
        </mxCell>
        <mxCell id="FPaf2N_hK8-Z7oMJIDtr-10" value="" style="endArrow=none;html=1;rounded=0;strokeColor=#8C8C8C;" edge="1" parent="FPaf2N_hK8-Z7oMJIDtr-15">
          <mxGeometry width="50" height="50" relative="1" as="geometry">
            <mxPoint x="16.666666666666668" y="50" as="sourcePoint" />
            <mxPoint x="33.333333333333336" y="50" as="targetPoint" />
          </mxGeometry>
        </mxCell>
        <mxCell id="FPaf2N_hK8-Z7oMJIDtr-11" value="" style="endArrow=none;html=1;rounded=0;strokeColor=#8C8C8C;" edge="1" parent="FPaf2N_hK8-Z7oMJIDtr-15">
          <mxGeometry width="50" height="50" relative="1" as="geometry">
            <mxPoint x="33.333333333333336" y="16.666666666666668" as="sourcePoint" />
            <mxPoint x="50" y="16.666666666666668" as="targetPoint" />
          </mxGeometry>
        </mxCell>
        <mxCell id="FPaf2N_hK8-Z7oMJIDtr-12" value="" style="endArrow=none;html=1;rounded=0;strokeColor=#8C8C8C;" edge="1" parent="FPaf2N_hK8-Z7oMJIDtr-15">
          <mxGeometry width="50" height="50" relative="1" as="geometry">
            <mxPoint y="33.333333333333336" as="sourcePoint" />
            <mxPoint x="16.666666666666668" y="33.333333333333336" as="targetPoint" />
          </mxGeometry>
        </mxCell>
        <mxCell id="FPaf2N_hK8-Z7oMJIDtr-13" value="" style="endArrow=none;html=1;rounded=0;strokeColor=#8C8C8C;" edge="1" parent="FPaf2N_hK8-Z7oMJIDtr-15">
          <mxGeometry width="50" height="50" relative="1" as="geometry">
            <mxPoint y="16.666666666666668" as="sourcePoint" />
            <mxPoint x="16.666666666666668" y="16.666666666666668" as="targetPoint" />
          </mxGeometry>
        </mxCell>
        <mxCell id="FPaf2N_hK8-Z7oMJIDtr-14" value="" style="endArrow=none;html=1;rounded=0;strokeColor=#8C8C8C;" edge="1" parent="FPaf2N_hK8-Z7oMJIDtr-15">
          <mxGeometry width="50" height="50" relative="1" as="geometry">
            <mxPoint x="16.666666666666668" as="sourcePoint" />
            <mxPoint x="33.333333333333336" as="targetPoint" />
          </mxGeometry>
        </mxCell>
      </root>
    </mxGraphModel>
  </diagram>
  <diagram name="binary counter" id="NekFaRgSDQ2mTNRRwl99">
    <mxGraphModel dx="3354" dy="1887" grid="1" gridSize="10" guides="1" tooltips="1" connect="1" arrows="1" fold="1" page="1" pageScale="1" pageWidth="850" pageHeight="1100" math="0" shadow="0">
      <root>
        <mxCell id="D4GQp_YEbtHQbBLWXhlp-0" />
        <mxCell id="D4GQp_YEbtHQbBLWXhlp-1" parent="D4GQp_YEbtHQbBLWXhlp-0" />
        <mxCell id="D4GQp_YEbtHQbBLWXhlp-2" value="" style="group" parent="D4GQp_YEbtHQbBLWXhlp-1" vertex="1" connectable="0">
          <mxGeometry x="720" y="257.1" width="266.13" height="212.9" as="geometry" />
        </mxCell>
        <mxCell id="D4GQp_YEbtHQbBLWXhlp-3" value="" style="whiteSpace=wrap;html=1;movable=1;resizable=1;rotatable=1;deletable=1;editable=1;locked=0;connectable=1;imageAspect=1;" parent="D4GQp_YEbtHQbBLWXhlp-2" vertex="1">
          <mxGeometry width="266.13" height="212.89999999999995" as="geometry" />
        </mxCell>
        <mxCell id="D4GQp_YEbtHQbBLWXhlp-4" value="" style="ellipse;whiteSpace=wrap;html=1;aspect=fixed;sketch=0;strokeColor=#666666;opacity=60;" parent="D4GQp_YEbtHQbBLWXhlp-2" vertex="1">
          <mxGeometry x="239.517" y="13.306250000000045" width="13.306131722222222" height="13.306131722222222" as="geometry" />
        </mxCell>
        <mxCell id="K7qg3ROOpgeqHKCxukTD-0" value="" style="rounded=0;whiteSpace=wrap;html=1;imageHeight=24;" parent="D4GQp_YEbtHQbBLWXhlp-2" vertex="1">
          <mxGeometry x="86.57" y="52.9" width="93" height="50" as="geometry" />
        </mxCell>
        <mxCell id="K7qg3ROOpgeqHKCxukTD-4" value="" style="ellipse;whiteSpace=wrap;html=1;aspect=fixed;" parent="D4GQp_YEbtHQbBLWXhlp-2" vertex="1">
          <mxGeometry x="60" y="152.9" width="17.1" height="17.1" as="geometry" />
        </mxCell>
        <mxCell id="K7qg3ROOpgeqHKCxukTD-5" value="" style="ellipse;whiteSpace=wrap;html=1;aspect=fixed;" parent="D4GQp_YEbtHQbBLWXhlp-2" vertex="1">
          <mxGeometry x="124.52" y="152.89999999999998" width="17.1" height="17.1" as="geometry" />
        </mxCell>
        <mxCell id="K7qg3ROOpgeqHKCxukTD-6" value="" style="ellipse;whiteSpace=wrap;html=1;aspect=fixed;" parent="D4GQp_YEbtHQbBLWXhlp-2" vertex="1">
          <mxGeometry x="190" y="152.89999999999998" width="17.1" height="17.1" as="geometry" />
        </mxCell>
        <mxCell id="K7qg3ROOpgeqHKCxukTD-8" value="9" style="text;html=1;align=center;verticalAlign=middle;resizable=0;points=[];autosize=1;strokeColor=none;fillColor=none;fontColor=#666;" parent="D4GQp_YEbtHQbBLWXhlp-2" vertex="1">
          <mxGeometry x="86.56999999999994" y="62.89999999999998" width="30" height="30" as="geometry" />
        </mxCell>
        <mxCell id="K7qg3ROOpgeqHKCxukTD-9" value="9" style="text;html=1;align=center;verticalAlign=middle;resizable=0;points=[];autosize=1;strokeColor=none;fillColor=none;fontColor=#666;" parent="D4GQp_YEbtHQbBLWXhlp-2" vertex="1">
          <mxGeometry x="148.06999999999994" y="62.89999999999998" width="30" height="30" as="geometry" />
        </mxCell>
        <mxCell id="K7qg3ROOpgeqHKCxukTD-10" value="9" style="text;html=1;align=center;verticalAlign=middle;resizable=0;points=[];autosize=1;strokeColor=none;fillColor=none;fontColor=#666;" parent="D4GQp_YEbtHQbBLWXhlp-2" vertex="1">
          <mxGeometry x="118.06999999999994" y="62.89999999999998" width="30" height="30" as="geometry" />
        </mxCell>
        <mxCell id="K7qg3ROOpgeqHKCxukTD-11" value="" style="rounded=0;whiteSpace=wrap;html=1;fontColor=#666;strokeColor=#666;" parent="D4GQp_YEbtHQbBLWXhlp-2" vertex="1">
          <mxGeometry x="96.57" y="57.8" width="10" height="7.1" as="geometry" />
        </mxCell>
        <mxCell id="K7qg3ROOpgeqHKCxukTD-12" value="" style="rounded=0;whiteSpace=wrap;html=1;fontColor=#666;strokeColor=#666;" parent="D4GQp_YEbtHQbBLWXhlp-2" vertex="1">
          <mxGeometry x="96.56999999999994" y="90.90000000000003" width="10" height="7.1" as="geometry" />
        </mxCell>
        <mxCell id="K7qg3ROOpgeqHKCxukTD-13" value="" style="rounded=0;whiteSpace=wrap;html=1;fontColor=#666;strokeColor=#666;" parent="D4GQp_YEbtHQbBLWXhlp-2" vertex="1">
          <mxGeometry x="128.06" y="57.80000000000001" width="10" height="7.1" as="geometry" />
        </mxCell>
        <mxCell id="K7qg3ROOpgeqHKCxukTD-14" value="" style="rounded=0;whiteSpace=wrap;html=1;fontColor=#666;strokeColor=#666;" parent="D4GQp_YEbtHQbBLWXhlp-2" vertex="1">
          <mxGeometry x="158.06999999999994" y="57.80000000000001" width="10" height="7.1" as="geometry" />
        </mxCell>
        <mxCell id="K7qg3ROOpgeqHKCxukTD-16" value="" style="rounded=0;whiteSpace=wrap;html=1;fontColor=#666;strokeColor=#666;" parent="D4GQp_YEbtHQbBLWXhlp-2" vertex="1">
          <mxGeometry x="128.05999999999995" y="90.90000000000003" width="10" height="7.1" as="geometry" />
        </mxCell>
        <mxCell id="K7qg3ROOpgeqHKCxukTD-17" value="" style="rounded=0;whiteSpace=wrap;html=1;fontColor=#666;strokeColor=#666;" parent="D4GQp_YEbtHQbBLWXhlp-2" vertex="1">
          <mxGeometry x="158.06999999999994" y="90.90000000000003" width="10" height="7.1" as="geometry" />
        </mxCell>
        <mxCell id="K7qg3ROOpgeqHKCxukTD-74" value="" style="group" parent="D4GQp_YEbtHQbBLWXhlp-2" vertex="1" connectable="0">
          <mxGeometry x="30" y="52.9" width="20" height="49.99999999999998" as="geometry" />
        </mxCell>
        <mxCell id="K7qg3ROOpgeqHKCxukTD-20" value="" style="rounded=0;whiteSpace=wrap;html=1;" parent="K7qg3ROOpgeqHKCxukTD-74" vertex="1">
          <mxGeometry width="20" height="5" as="geometry" />
        </mxCell>
        <mxCell id="K7qg3ROOpgeqHKCxukTD-65" value="" style="rounded=0;whiteSpace=wrap;html=1;" parent="K7qg3ROOpgeqHKCxukTD-74" vertex="1">
          <mxGeometry y="4.999999999999979" width="20" height="5" as="geometry" />
        </mxCell>
        <mxCell id="K7qg3ROOpgeqHKCxukTD-66" value="" style="rounded=0;whiteSpace=wrap;html=1;" parent="K7qg3ROOpgeqHKCxukTD-74" vertex="1">
          <mxGeometry y="9.999999999999979" width="20" height="5" as="geometry" />
        </mxCell>
        <mxCell id="K7qg3ROOpgeqHKCxukTD-67" value="" style="rounded=0;whiteSpace=wrap;html=1;" parent="K7qg3ROOpgeqHKCxukTD-74" vertex="1">
          <mxGeometry y="14.999999999999979" width="20" height="5" as="geometry" />
        </mxCell>
        <mxCell id="K7qg3ROOpgeqHKCxukTD-68" value="" style="rounded=0;whiteSpace=wrap;html=1;" parent="K7qg3ROOpgeqHKCxukTD-74" vertex="1">
          <mxGeometry y="19.99999999999998" width="20" height="5" as="geometry" />
        </mxCell>
        <mxCell id="K7qg3ROOpgeqHKCxukTD-69" value="" style="rounded=0;whiteSpace=wrap;html=1;" parent="K7qg3ROOpgeqHKCxukTD-74" vertex="1">
          <mxGeometry y="24.99999999999998" width="20" height="5" as="geometry" />
        </mxCell>
        <mxCell id="K7qg3ROOpgeqHKCxukTD-70" value="" style="rounded=0;whiteSpace=wrap;html=1;" parent="K7qg3ROOpgeqHKCxukTD-74" vertex="1">
          <mxGeometry y="29.99999999999998" width="20" height="5" as="geometry" />
        </mxCell>
        <mxCell id="K7qg3ROOpgeqHKCxukTD-71" value="" style="rounded=0;whiteSpace=wrap;html=1;" parent="K7qg3ROOpgeqHKCxukTD-74" vertex="1">
          <mxGeometry y="34.99999999999998" width="20" height="5" as="geometry" />
        </mxCell>
        <mxCell id="K7qg3ROOpgeqHKCxukTD-72" value="" style="rounded=0;whiteSpace=wrap;html=1;" parent="K7qg3ROOpgeqHKCxukTD-74" vertex="1">
          <mxGeometry y="39.99999999999998" width="20" height="5" as="geometry" />
        </mxCell>
        <mxCell id="K7qg3ROOpgeqHKCxukTD-73" value="" style="rounded=0;whiteSpace=wrap;html=1;" parent="K7qg3ROOpgeqHKCxukTD-74" vertex="1">
          <mxGeometry y="44.99999999999998" width="20" height="5" as="geometry" />
        </mxCell>
        <mxCell id="K7qg3ROOpgeqHKCxukTD-75" value="" style="group" parent="D4GQp_YEbtHQbBLWXhlp-2" vertex="1" connectable="0">
          <mxGeometry x="207.10000000000002" y="52.89999999999998" width="20" height="49.99999999999998" as="geometry" />
        </mxCell>
        <mxCell id="K7qg3ROOpgeqHKCxukTD-76" value="" style="rounded=0;whiteSpace=wrap;html=1;" parent="K7qg3ROOpgeqHKCxukTD-75" vertex="1">
          <mxGeometry width="20" height="5" as="geometry" />
        </mxCell>
        <mxCell id="K7qg3ROOpgeqHKCxukTD-77" value="" style="rounded=0;whiteSpace=wrap;html=1;" parent="K7qg3ROOpgeqHKCxukTD-75" vertex="1">
          <mxGeometry y="4.999999999999979" width="20" height="5" as="geometry" />
        </mxCell>
        <mxCell id="K7qg3ROOpgeqHKCxukTD-78" value="" style="rounded=0;whiteSpace=wrap;html=1;" parent="K7qg3ROOpgeqHKCxukTD-75" vertex="1">
          <mxGeometry y="9.999999999999979" width="20" height="5" as="geometry" />
        </mxCell>
        <mxCell id="K7qg3ROOpgeqHKCxukTD-79" value="" style="rounded=0;whiteSpace=wrap;html=1;" parent="K7qg3ROOpgeqHKCxukTD-75" vertex="1">
          <mxGeometry y="14.999999999999979" width="20" height="5" as="geometry" />
        </mxCell>
        <mxCell id="K7qg3ROOpgeqHKCxukTD-80" value="" style="rounded=0;whiteSpace=wrap;html=1;" parent="K7qg3ROOpgeqHKCxukTD-75" vertex="1">
          <mxGeometry y="19.99999999999998" width="20" height="5" as="geometry" />
        </mxCell>
        <mxCell id="K7qg3ROOpgeqHKCxukTD-81" value="" style="rounded=0;whiteSpace=wrap;html=1;" parent="K7qg3ROOpgeqHKCxukTD-75" vertex="1">
          <mxGeometry y="24.99999999999998" width="20" height="5" as="geometry" />
        </mxCell>
        <mxCell id="K7qg3ROOpgeqHKCxukTD-82" value="" style="rounded=0;whiteSpace=wrap;html=1;" parent="K7qg3ROOpgeqHKCxukTD-75" vertex="1">
          <mxGeometry y="29.99999999999998" width="20" height="5" as="geometry" />
        </mxCell>
        <mxCell id="K7qg3ROOpgeqHKCxukTD-83" value="" style="rounded=0;whiteSpace=wrap;html=1;" parent="K7qg3ROOpgeqHKCxukTD-75" vertex="1">
          <mxGeometry y="34.99999999999998" width="20" height="5" as="geometry" />
        </mxCell>
        <mxCell id="K7qg3ROOpgeqHKCxukTD-84" value="" style="rounded=0;whiteSpace=wrap;html=1;" parent="K7qg3ROOpgeqHKCxukTD-75" vertex="1">
          <mxGeometry y="39.99999999999998" width="20" height="5" as="geometry" />
        </mxCell>
        <mxCell id="K7qg3ROOpgeqHKCxukTD-85" value="" style="rounded=0;whiteSpace=wrap;html=1;" parent="K7qg3ROOpgeqHKCxukTD-75" vertex="1">
          <mxGeometry y="44.99999999999998" width="20" height="5" as="geometry" />
        </mxCell>
      </root>
    </mxGraphModel>
  </diagram>
  <diagram name="binary counter LEDs" id="xYg9oY0Gav2Hg0Ecdh03">
    <mxGraphModel dx="330" dy="432" grid="0" gridSize="10" guides="1" tooltips="1" connect="1" arrows="1" fold="1" page="1" pageScale="1" pageWidth="850" pageHeight="1100" math="0" shadow="0">
      <root>
        <mxCell id="aF8TG6kJvMEliWmnbw7O-0" />
        <mxCell id="aF8TG6kJvMEliWmnbw7O-1" parent="aF8TG6kJvMEliWmnbw7O-0" />
        <mxCell id="gcUgo1erykz41eZK9xF8-41" value="" style="rounded=0;whiteSpace=wrap;html=1;fillColor=#FF3333;container=0;" vertex="1" parent="aF8TG6kJvMEliWmnbw7O-1">
          <mxGeometry x="328" y="274" width="20" height="7" as="geometry" />
        </mxCell>
        <mxCell id="gcUgo1erykz41eZK9xF8-69" value="" style="rounded=0;whiteSpace=wrap;html=1;fillColor=#666;container=0;" vertex="1" parent="aF8TG6kJvMEliWmnbw7O-1">
          <mxGeometry x="328" y="295" width="20" height="7" as="geometry" />
        </mxCell>
        <mxCell id="gcUgo1erykz41eZK9xF8-72" value="" style="rounded=0;whiteSpace=wrap;html=1;fillColor=#FF3333;container=0;" vertex="1" parent="aF8TG6kJvMEliWmnbw7O-1">
          <mxGeometry x="328" y="288" width="20" height="7" as="geometry" />
        </mxCell>
        <mxCell id="gcUgo1erykz41eZK9xF8-73" value="" style="rounded=0;whiteSpace=wrap;html=1;fillColor=#FF3333;container=0;" vertex="1" parent="aF8TG6kJvMEliWmnbw7O-1">
          <mxGeometry x="328" y="302" width="20" height="7" as="geometry" />
        </mxCell>
        <mxCell id="gcUgo1erykz41eZK9xF8-74" value="" style="rounded=0;whiteSpace=wrap;html=1;fillColor=#FF3333;container=0;" vertex="1" parent="aF8TG6kJvMEliWmnbw7O-1">
          <mxGeometry x="328" y="260" width="20" height="7" as="geometry" />
        </mxCell>
        <mxCell id="gcUgo1erykz41eZK9xF8-75" value="" style="rounded=0;whiteSpace=wrap;html=1;fillColor=#666;container=0;" vertex="1" parent="aF8TG6kJvMEliWmnbw7O-1">
          <mxGeometry x="328" y="253" width="20" height="7" as="geometry" />
        </mxCell>
        <mxCell id="gcUgo1erykz41eZK9xF8-78" value="" style="rounded=0;whiteSpace=wrap;html=1;fillColor=#FF3333;container=0;" vertex="1" parent="aF8TG6kJvMEliWmnbw7O-1">
          <mxGeometry x="328" y="281" width="20" height="7" as="geometry" />
        </mxCell>
        <mxCell id="gcUgo1erykz41eZK9xF8-86" value="" style="rounded=0;whiteSpace=wrap;html=1;fillColor=#666;container=0;" vertex="1" parent="aF8TG6kJvMEliWmnbw7O-1">
          <mxGeometry x="328" y="267" width="20" height="7" as="geometry" />
        </mxCell>
        <mxCell id="gcUgo1erykz41eZK9xF8-89" value="" style="rounded=0;whiteSpace=wrap;html=1;fillColor=#FF3333;container=0;" vertex="1" parent="aF8TG6kJvMEliWmnbw7O-1">
          <mxGeometry x="328" y="246" width="20" height="7" as="geometry" />
        </mxCell>
        <mxCell id="gcUgo1erykz41eZK9xF8-90" value="" style="rounded=0;whiteSpace=wrap;html=1;fillColor=#FF3333;container=0;" vertex="1" parent="aF8TG6kJvMEliWmnbw7O-1">
          <mxGeometry x="328" y="309" width="20" height="7" as="geometry" />
        </mxCell>
      </root>
    </mxGraphModel>
  </diagram>
  <diagram name="hieroglyphs" id="68fzHJAzKqqD6l4U_0wW">
    <mxGraphModel dx="3354" dy="1887" grid="1" gridSize="10" guides="1" tooltips="1" connect="1" arrows="1" fold="1" page="1" pageScale="1" pageWidth="850" pageHeight="1100" math="0" shadow="0">
      <root>
        <mxCell id="Dw_9Ml8tozh3RE0T2vmZ-0" />
        <mxCell id="Dw_9Ml8tozh3RE0T2vmZ-1" parent="Dw_9Ml8tozh3RE0T2vmZ-0" />
        <mxCell id="Dw_9Ml8tozh3RE0T2vmZ-2" value="" style="group" parent="Dw_9Ml8tozh3RE0T2vmZ-1" vertex="1" connectable="0">
          <mxGeometry x="729" y="257.1" width="266.13" height="212.9" as="geometry" />
        </mxCell>
        <mxCell id="Dw_9Ml8tozh3RE0T2vmZ-3" value="" style="whiteSpace=wrap;html=1;movable=1;resizable=1;rotatable=1;deletable=1;editable=1;locked=0;connectable=1;imageAspect=1;" parent="Dw_9Ml8tozh3RE0T2vmZ-2" vertex="1">
          <mxGeometry width="266.13" height="212.89999999999995" as="geometry" />
        </mxCell>
        <mxCell id="Dw_9Ml8tozh3RE0T2vmZ-4" value="" style="ellipse;whiteSpace=wrap;html=1;aspect=fixed;sketch=0;strokeColor=#666666;opacity=60;" parent="Dw_9Ml8tozh3RE0T2vmZ-2" vertex="1">
          <mxGeometry x="239.517" y="13.306250000000045" width="13.306131722222222" height="13.306131722222222" as="geometry" />
        </mxCell>
        <mxCell id="Ro0K8McWqfkmLOTFIAgV-1" value="" style="rounded=0;whiteSpace=wrap;html=1;strokeColor=#666666;" parent="Dw_9Ml8tozh3RE0T2vmZ-2" vertex="1">
          <mxGeometry x="70" y="26.9" width="120" height="163.1" as="geometry" />
        </mxCell>
        <mxCell id="Ro0K8McWqfkmLOTFIAgV-2" value="" style="ellipse;whiteSpace=wrap;html=1;aspect=fixed;strokeColor=#666666;" parent="Dw_9Ml8tozh3RE0T2vmZ-2" vertex="1">
          <mxGeometry x="33" y="62.9" width="13.1" height="13.1" as="geometry" />
        </mxCell>
        <mxCell id="Ro0K8McWqfkmLOTFIAgV-3" value="" style="ellipse;whiteSpace=wrap;html=1;aspect=fixed;strokeColor=#666666;" parent="Dw_9Ml8tozh3RE0T2vmZ-2" vertex="1">
          <mxGeometry x="33" y="145.89999999999998" width="13.1" height="13.1" as="geometry" />
        </mxCell>
        <mxCell id="Ro0K8McWqfkmLOTFIAgV-4" value="" style="ellipse;whiteSpace=wrap;html=1;aspect=fixed;strokeColor=#666666;" parent="Dw_9Ml8tozh3RE0T2vmZ-2" vertex="1">
          <mxGeometry x="215" y="62.89999999999998" width="13.1" height="13.1" as="geometry" />
        </mxCell>
        <mxCell id="Ro0K8McWqfkmLOTFIAgV-5" value="" style="ellipse;whiteSpace=wrap;html=1;aspect=fixed;strokeColor=#666666;" parent="Dw_9Ml8tozh3RE0T2vmZ-2" vertex="1">
          <mxGeometry x="215" y="145.89999999999998" width="13.1" height="13.1" as="geometry" />
        </mxCell>
        <mxCell id="Ro0K8McWqfkmLOTFIAgV-13" value="" style="triangle;whiteSpace=wrap;html=1;strokeColor=#cccccc;fontSize=36;fontColor=#cccccc;strokeWidth=2;" parent="Dw_9Ml8tozh3RE0T2vmZ-2" vertex="1">
          <mxGeometry x="86" y="49.44999999999999" width="30" height="40" as="geometry" />
        </mxCell>
        <mxCell id="Ro0K8McWqfkmLOTFIAgV-14" value="" style="ellipse;whiteSpace=wrap;html=1;aspect=fixed;strokeColor=#cccccc;strokeWidth=2;fontSize=36;fontColor=#cccccc;" parent="Dw_9Ml8tozh3RE0T2vmZ-2" vertex="1">
          <mxGeometry x="137" y="130" width="42.45" height="42.45" as="geometry" />
        </mxCell>
        <mxCell id="Ro0K8McWqfkmLOTFIAgV-15" value="" style="whiteSpace=wrap;html=1;aspect=fixed;strokeColor=#cccccc;strokeWidth=2;fontSize=36;fontColor=#cccccc;" parent="Dw_9Ml8tozh3RE0T2vmZ-2" vertex="1">
          <mxGeometry x="86" y="137.5" width="29.9" height="29.9" as="geometry" />
        </mxCell>
        <mxCell id="Ro0K8McWqfkmLOTFIAgV-16" value="" style="rhombus;whiteSpace=wrap;html=1;strokeColor=#cccccc;strokeWidth=2;fontSize=36;fontColor=#cccccc;" parent="Dw_9Ml8tozh3RE0T2vmZ-2" vertex="1">
          <mxGeometry x="136" y="49.44999999999999" width="41" height="40" as="geometry" />
        </mxCell>
      </root>
    </mxGraphModel>
  </diagram>
  <diagram name="Wires" id="m4JUCFZH8cbecEpPIyrq">
    <mxGraphModel dx="1342" dy="755" grid="1" gridSize="10" guides="1" tooltips="1" connect="1" arrows="1" fold="1" page="1" pageScale="1" pageWidth="850" pageHeight="1100" math="0" shadow="0">
      <root>
        <mxCell id="Xrswbe4nHHZkZYSf46C4-0" />
        <mxCell id="Xrswbe4nHHZkZYSf46C4-1" parent="Xrswbe4nHHZkZYSf46C4-0" />
        <mxCell id="Xrswbe4nHHZkZYSf46C4-2" value="" style="group" vertex="1" connectable="0" parent="Xrswbe4nHHZkZYSf46C4-1">
          <mxGeometry x="720" y="257.1" width="266.13" height="212.9" as="geometry" />
        </mxCell>
        <mxCell id="Xrswbe4nHHZkZYSf46C4-3" value="" style="whiteSpace=wrap;html=1;movable=1;resizable=1;rotatable=1;deletable=1;editable=1;locked=0;connectable=1;imageAspect=1;" vertex="1" parent="Xrswbe4nHHZkZYSf46C4-2">
          <mxGeometry width="266.13" height="212.89999999999995" as="geometry" />
        </mxCell>
        <mxCell id="Xrswbe4nHHZkZYSf46C4-4" value="" style="ellipse;whiteSpace=wrap;html=1;aspect=fixed;sketch=0;strokeColor=#666666;opacity=60;" vertex="1" parent="Xrswbe4nHHZkZYSf46C4-2">
          <mxGeometry x="239.517" y="13.306250000000045" width="13.306131722222222" height="13.306131722222222" as="geometry" />
        </mxCell>
        <mxCell id="aI-kYbmjm3-2O29sOF5n-0" value="" style="rounded=0;whiteSpace=wrap;html=1;fontSize=16;" vertex="1" parent="Xrswbe4nHHZkZYSf46C4-2">
          <mxGeometry x="50" y="32.9" width="10" height="147.1" as="geometry" />
        </mxCell>
        <mxCell id="aI-kYbmjm3-2O29sOF5n-1" value="" style="rounded=0;whiteSpace=wrap;html=1;fontSize=16;" vertex="1" parent="Xrswbe4nHHZkZYSf46C4-2">
          <mxGeometry x="200" y="32.89999999999998" width="10" height="147.1" as="geometry" />
        </mxCell>
        <mxCell id="aI-kYbmjm3-2O29sOF5n-4" value="" style="curved=1;endArrow=none;html=1;rounded=0;fontSize=16;fontColor=#424242;endFill=0;anchorPointDirection=0;entryX=0.5;entryY=0.952;entryDx=0;entryDy=0;entryPerimeter=0;strokeColor=#666666;" edge="1" parent="Xrswbe4nHHZkZYSf46C4-2" target="aI-kYbmjm3-2O29sOF5n-1">
          <mxGeometry width="50" height="50" relative="1" as="geometry">
            <mxPoint x="55" y="172.89999999999998" as="sourcePoint" />
            <mxPoint x="105" y="122.89999999999998" as="targetPoint" />
            <Array as="points">
              <mxPoint x="100" y="162.89999999999998" />
              <mxPoint x="140" y="162.89999999999998" />
            </Array>
          </mxGeometry>
        </mxCell>
        <mxCell id="aI-kYbmjm3-2O29sOF5n-5" value="" style="curved=1;endArrow=none;html=1;rounded=0;fontSize=16;fontColor=#424242;endFill=0;anchorPointDirection=0;entryX=0.5;entryY=0.952;entryDx=0;entryDy=0;entryPerimeter=0;strokeColor=#666666;" edge="1" parent="Xrswbe4nHHZkZYSf46C4-2">
          <mxGeometry width="50" height="50" relative="1" as="geometry">
            <mxPoint x="56.059999999999945" y="152.89999999999998" as="sourcePoint" />
            <mxPoint x="206.05999999999995" y="153" as="targetPoint" />
            <Array as="points">
              <mxPoint x="101.05999999999995" y="142.89999999999998" />
              <mxPoint x="168" y="132.89999999999998" />
            </Array>
          </mxGeometry>
        </mxCell>
        <mxCell id="aI-kYbmjm3-2O29sOF5n-6" value="" style="curved=1;endArrow=none;html=1;rounded=0;fontSize=16;fontColor=#424242;endFill=0;anchorPointDirection=0;entryX=0.5;entryY=0.952;entryDx=0;entryDy=0;entryPerimeter=0;strokeColor=#666666;" edge="1" parent="Xrswbe4nHHZkZYSf46C4-2">
          <mxGeometry width="50" height="50" relative="1" as="geometry">
            <mxPoint x="55" y="82.89999999999998" as="sourcePoint" />
            <mxPoint x="205" y="83" as="targetPoint" />
            <Array as="points">
              <mxPoint x="91" y="62.89999999999998" />
              <mxPoint x="161" y="72.89999999999998" />
            </Array>
          </mxGeometry>
        </mxCell>
        <mxCell id="aI-kYbmjm3-2O29sOF5n-7" value="" style="curved=1;endArrow=none;html=1;rounded=0;fontSize=16;fontColor=#424242;endFill=0;anchorPointDirection=0;entryX=0.5;entryY=0.952;entryDx=0;entryDy=0;entryPerimeter=0;strokeColor=#666666;" edge="1" parent="Xrswbe4nHHZkZYSf46C4-2">
          <mxGeometry width="50" height="50" relative="1" as="geometry">
            <mxPoint x="53.059999999999945" y="113.89999999999998" as="sourcePoint" />
            <mxPoint x="203.05999999999995" y="114" as="targetPoint" />
            <Array as="points">
              <mxPoint x="98" y="103.89999999999998" />
              <mxPoint x="159.05999999999995" y="103.89999999999998" />
            </Array>
          </mxGeometry>
        </mxCell>
        <mxCell id="aI-kYbmjm3-2O29sOF5n-8" value="" style="curved=1;endArrow=none;html=1;rounded=0;fontSize=16;fontColor=#424242;endFill=0;anchorPointDirection=0;entryX=0.5;entryY=0.952;entryDx=0;entryDy=0;entryPerimeter=0;strokeColor=#666666;" edge="1" parent="Xrswbe4nHHZkZYSf46C4-2">
          <mxGeometry width="50" height="50" relative="1" as="geometry">
            <mxPoint x="57.059999999999945" y="55.89999999999998" as="sourcePoint" />
            <mxPoint x="207.05999999999995" y="56" as="targetPoint" />
            <Array as="points">
              <mxPoint x="110" y="35.89999999999998" />
              <mxPoint x="170" y="35.89999999999998" />
            </Array>
          </mxGeometry>
        </mxCell>
      </root>
    </mxGraphModel>
  </diagram>
  <diagram name="clock" id="iirjd_qU2L6x_WUdIXxL">
    <mxGraphModel dx="393" dy="515" grid="1" gridSize="10" guides="1" tooltips="1" connect="1" arrows="1" fold="1" page="1" pageScale="1" pageWidth="850" pageHeight="1100" math="0" shadow="0">
      <root>
        <mxCell id="-yVGgguokqMMiq2aEBLV-0" />
        <mxCell id="-yVGgguokqMMiq2aEBLV-1" parent="-yVGgguokqMMiq2aEBLV-0" />
        <mxCell id="-yVGgguokqMMiq2aEBLV-2" value="" style="group;fontColor=#CCCCCC;" parent="-yVGgguokqMMiq2aEBLV-1" vertex="1" connectable="0">
          <mxGeometry x="720" y="257.1" width="266.13" height="212.9" as="geometry" />
        </mxCell>
        <mxCell id="-yVGgguokqMMiq2aEBLV-3" value="" style="whiteSpace=wrap;html=1;movable=1;resizable=1;rotatable=1;deletable=1;editable=1;locked=0;connectable=1;imageAspect=1;fontColor=#CCCCCC;" parent="-yVGgguokqMMiq2aEBLV-2" vertex="1">
          <mxGeometry width="266.13" height="212.89999999999995" as="geometry" />
        </mxCell>
        <mxCell id="sOWfOhBT1RNEUnN34cjJ-3" value="&lt;font style=&quot;font-size: 16px;&quot;&gt;6&lt;/font&gt;" style="text;strokeColor=none;fillColor=none;html=1;fontSize=24;fontStyle=1;verticalAlign=middle;align=center;fontColor=#CCCCCC;" vertex="1" parent="-yVGgguokqMMiq2aEBLV-2">
          <mxGeometry x="83" y="132.90000000000003" width="100" height="40" as="geometry" />
        </mxCell>
        <mxCell id="sOWfOhBT1RNEUnN34cjJ-1" value="&lt;font style=&quot;font-size: 16px;&quot;&gt;3&lt;/font&gt;" style="text;strokeColor=none;fillColor=none;html=1;fontSize=24;fontStyle=1;verticalAlign=middle;align=center;fontColor=#CCCCCC;" vertex="1" parent="-yVGgguokqMMiq2aEBLV-2">
          <mxGeometry x="152.82000000000005" y="64.45000000000005" width="100" height="36" as="geometry" />
        </mxCell>
        <mxCell id="sOWfOhBT1RNEUnN34cjJ-0" value="&lt;font style=&quot;font-size: 16px;&quot;&gt;12&lt;/font&gt;" style="text;strokeColor=none;fillColor=none;html=1;fontSize=24;fontStyle=1;verticalAlign=middle;align=center;fontColor=#CCCCCC;" vertex="1" parent="-yVGgguokqMMiq2aEBLV-2">
          <mxGeometry x="82" y="-10.390000000000022" width="100" height="40" as="geometry" />
        </mxCell>
        <mxCell id="sOWfOhBT1RNEUnN34cjJ-2" value="&lt;font style=&quot;font-size: 16px;&quot;&gt;9&lt;/font&gt;" style="text;strokeColor=none;fillColor=none;html=1;fontSize=24;fontStyle=1;verticalAlign=middle;align=center;fontColor=#CCCCCC;" vertex="1" parent="-yVGgguokqMMiq2aEBLV-2">
          <mxGeometry x="12" y="60.450000000000045" width="100" height="40" as="geometry" />
        </mxCell>
        <mxCell id="-yVGgguokqMMiq2aEBLV-4" value="" style="ellipse;whiteSpace=wrap;html=1;aspect=fixed;sketch=0;strokeColor=#666666;opacity=60;fontColor=#CCCCCC;" parent="-yVGgguokqMMiq2aEBLV-2" vertex="1">
          <mxGeometry x="239.517" y="13.306250000000045" width="13.306131722222222" height="13.306131722222222" as="geometry" />
        </mxCell>
        <mxCell id="puFjVkSIKuEF_aNrchUp-9" value="" style="ellipse;whiteSpace=wrap;html=1;aspect=fixed;strokeColor=#666666;fontColor=#CCCCCC;" vertex="1" parent="-yVGgguokqMMiq2aEBLV-2">
          <mxGeometry x="74.45" y="26.61" width="117.1" height="117.1" as="geometry" />
        </mxCell>
        <mxCell id="puFjVkSIKuEF_aNrchUp-0" value="" style="ellipse;whiteSpace=wrap;html=1;aspect=fixed;strokeColor=#666666;fontColor=#CCCCCC;" vertex="1" parent="-yVGgguokqMMiq2aEBLV-2">
          <mxGeometry x="89.45" y="41.61" width="87.1" height="87.1" as="geometry" />
        </mxCell>
        <mxCell id="puFjVkSIKuEF_aNrchUp-6" value="" style="ellipse;whiteSpace=wrap;html=1;aspect=fixed;strokeColor=#666666;fontColor=#CCCCCC;" vertex="1" parent="-yVGgguokqMMiq2aEBLV-2">
          <mxGeometry x="124.45" y="172.9" width="17.1" height="17.1" as="geometry" />
        </mxCell>
        <mxCell id="puFjVkSIKuEF_aNrchUp-7" value="" style="ellipse;whiteSpace=wrap;html=1;aspect=fixed;strokeColor=#666666;fontColor=#CCCCCC;" vertex="1" parent="-yVGgguokqMMiq2aEBLV-2">
          <mxGeometry x="190" y="172.89999999999998" width="17.1" height="17.1" as="geometry" />
        </mxCell>
        <mxCell id="puFjVkSIKuEF_aNrchUp-8" value="" style="ellipse;whiteSpace=wrap;html=1;aspect=fixed;strokeColor=#666666;fontColor=#CCCCCC;" vertex="1" parent="-yVGgguokqMMiq2aEBLV-2">
          <mxGeometry x="60" y="172.89999999999998" width="17.1" height="17.1" as="geometry" />
        </mxCell>
        <mxCell id="puFjVkSIKuEF_aNrchUp-10" value="" style="whiteSpace=wrap;html=1;aspect=fixed;strokeColor=#005700;fillColor=#008a00;fontColor=#ffffff;" vertex="1" parent="-yVGgguokqMMiq2aEBLV-2">
          <mxGeometry x="128" y="29.609999999999957" width="10" height="10" as="geometry" />
        </mxCell>
        <mxCell id="puFjVkSIKuEF_aNrchUp-11" value="" style="whiteSpace=wrap;html=1;aspect=fixed;strokeColor=#005700;fillColor=#008a00;fontColor=#ffffff;" vertex="1" parent="-yVGgguokqMMiq2aEBLV-2">
          <mxGeometry x="179" y="80.15999999999997" width="10" height="10" as="geometry" />
        </mxCell>
        <mxCell id="puFjVkSIKuEF_aNrchUp-12" value="" style="whiteSpace=wrap;html=1;aspect=fixed;strokeColor=#001DBC;fillColor=#0050ef;fontColor=#ffffff;" vertex="1" parent="-yVGgguokqMMiq2aEBLV-2">
          <mxGeometry x="128.05999999999995" y="130.70999999999998" width="10" height="10" as="geometry" />
        </mxCell>
        <mxCell id="puFjVkSIKuEF_aNrchUp-13" value="" style="whiteSpace=wrap;html=1;aspect=fixed;strokeColor=#B20000;fillColor=#e51400;fontColor=#ffffff;" vertex="1" parent="-yVGgguokqMMiq2aEBLV-2">
          <mxGeometry x="77.10000000000002" y="80.15999999999997" width="10" height="10" as="geometry" />
        </mxCell>
        <mxCell id="puFjVkSIKuEF_aNrchUp-14" value="" style="whiteSpace=wrap;html=1;aspect=fixed;rotation=-30;strokeColor=#001DBC;fillColor=#0050ef;fontColor=#ffffff;" vertex="1" parent="-yVGgguokqMMiq2aEBLV-2">
          <mxGeometry x="154" y="123.70999999999998" width="10" height="10" as="geometry" />
        </mxCell>
        <mxCell id="puFjVkSIKuEF_aNrchUp-15" value="" style="whiteSpace=wrap;html=1;aspect=fixed;rotation=-30;strokeColor=#B20000;fillColor=#e51400;fontColor=#ffffff;" vertex="1" parent="-yVGgguokqMMiq2aEBLV-2">
          <mxGeometry x="102" y="36.610000000000014" width="10" height="10" as="geometry" />
        </mxCell>
        <mxCell id="puFjVkSIKuEF_aNrchUp-16" value="" style="whiteSpace=wrap;html=1;aspect=fixed;rotation=-30;strokeColor=#005700;fillColor=#008a00;fontColor=#ffffff;" vertex="1" parent="-yVGgguokqMMiq2aEBLV-2">
          <mxGeometry x="172" y="54.89999999999998" width="10" height="10" as="geometry" />
        </mxCell>
        <mxCell id="puFjVkSIKuEF_aNrchUp-17" value="" style="whiteSpace=wrap;html=1;aspect=fixed;rotation=-30;strokeColor=#001DBC;fillColor=#0050ef;fontColor=#ffffff;" vertex="1" parent="-yVGgguokqMMiq2aEBLV-2">
          <mxGeometry x="83.45000000000005" y="104.44999999999999" width="10" height="10" as="geometry" />
        </mxCell>
        <mxCell id="puFjVkSIKuEF_aNrchUp-18" value="" style="whiteSpace=wrap;html=1;aspect=fixed;rotation=-60;strokeColor=#001DBC;fillColor=#0050ef;fontColor=#ffffff;" vertex="1" parent="-yVGgguokqMMiq2aEBLV-2">
          <mxGeometry x="102" y="123.70999999999998" width="10" height="10" as="geometry" />
        </mxCell>
        <mxCell id="puFjVkSIKuEF_aNrchUp-19" value="" style="whiteSpace=wrap;html=1;aspect=fixed;rotation=-60;strokeColor=#005700;fillColor=#008a00;fontColor=#ffffff;" vertex="1" parent="-yVGgguokqMMiq2aEBLV-2">
          <mxGeometry x="154" y="36.610000000000014" width="10" height="10" as="geometry" />
        </mxCell>
        <mxCell id="puFjVkSIKuEF_aNrchUp-20" value="" style="whiteSpace=wrap;html=1;aspect=fixed;rotation=-60;strokeColor=#005700;fillColor=#008a00;fontColor=#ffffff;" vertex="1" parent="-yVGgguokqMMiq2aEBLV-2">
          <mxGeometry x="173" y="104.44999999999999" width="10" height="10" as="geometry" />
        </mxCell>
        <mxCell id="puFjVkSIKuEF_aNrchUp-21" value="" style="whiteSpace=wrap;html=1;aspect=fixed;rotation=-60;strokeColor=#B20000;fillColor=#e51400;fontColor=#ffffff;" vertex="1" parent="-yVGgguokqMMiq2aEBLV-2">
          <mxGeometry x="83.45000000000005" y="54.89999999999998" width="10" height="10" as="geometry" />
        </mxCell>
      </root>
    </mxGraphModel>
  </diagram>
  <diagram name="simon says module" id="O2vFZoJzMwvMDEMWzrIn">
    <mxGraphModel dx="3354" dy="1887" grid="1" gridSize="10" guides="1" tooltips="1" connect="1" arrows="1" fold="1" page="1" pageScale="1" pageWidth="850" pageHeight="1100" math="0" shadow="0">
      <root>
        <mxCell id="1h9FVR-ElhC1_D5CZvCe-0" />
        <mxCell id="1h9FVR-ElhC1_D5CZvCe-1" parent="1h9FVR-ElhC1_D5CZvCe-0" />
        <mxCell id="1h9FVR-ElhC1_D5CZvCe-2" value="" style="group" parent="1h9FVR-ElhC1_D5CZvCe-1" vertex="1" connectable="0">
          <mxGeometry x="720" y="257.1" width="266.13" height="212.9" as="geometry" />
        </mxCell>
        <mxCell id="1h9FVR-ElhC1_D5CZvCe-3" value="" style="whiteSpace=wrap;html=1;movable=1;resizable=1;rotatable=1;deletable=1;editable=1;locked=0;connectable=1;imageAspect=1;" parent="1h9FVR-ElhC1_D5CZvCe-2" vertex="1">
          <mxGeometry width="266.13" height="212.89999999999995" as="geometry" />
        </mxCell>
        <mxCell id="1h9FVR-ElhC1_D5CZvCe-4" value="" style="ellipse;whiteSpace=wrap;html=1;aspect=fixed;sketch=0;strokeColor=#666666;opacity=60;" parent="1h9FVR-ElhC1_D5CZvCe-2" vertex="1">
          <mxGeometry x="239.517" y="13.306250000000045" width="13.306131722222222" height="13.306131722222222" as="geometry" />
        </mxCell>
        <mxCell id="OAmHXx_gSrP8fZYqgxq8-0" value="" style="ellipse;whiteSpace=wrap;html=1;aspect=fixed;shadow=0;sketch=0;strokeColor=#424242;fontSize=16;fontColor=#666666;fillColor=none;opacity=60;connectable=0;" parent="1h9FVR-ElhC1_D5CZvCe-2" vertex="1">
          <mxGeometry x="111.52" y="41.80000000000001" width="43.1" height="43.1" as="geometry" />
        </mxCell>
        <mxCell id="OAmHXx_gSrP8fZYqgxq8-1" value="" style="ellipse;whiteSpace=wrap;html=1;aspect=fixed;shadow=0;sketch=0;strokeColor=#424242;fontSize=16;fontColor=#666666;fillColor=none;opacity=60;" parent="1h9FVR-ElhC1_D5CZvCe-2" vertex="1">
          <mxGeometry x="154.62" y="84.90000000000005" width="43.1" height="43.1" as="geometry" />
        </mxCell>
        <mxCell id="OAmHXx_gSrP8fZYqgxq8-2" value="" style="ellipse;whiteSpace=wrap;html=1;aspect=fixed;shadow=0;sketch=0;strokeColor=#424242;fontSize=16;fontColor=#666666;fillColor=none;opacity=60;" parent="1h9FVR-ElhC1_D5CZvCe-2" vertex="1">
          <mxGeometry x="111.51999999999998" y="128" width="43.1" height="43.1" as="geometry" />
        </mxCell>
        <mxCell id="OAmHXx_gSrP8fZYqgxq8-3" value="" style="ellipse;whiteSpace=wrap;html=1;aspect=fixed;shadow=0;sketch=0;strokeColor=#424242;fontSize=16;fontColor=#666666;fillColor=none;opacity=60;" parent="1h9FVR-ElhC1_D5CZvCe-2" vertex="1">
          <mxGeometry x="68.41999999999996" y="84.90000000000005" width="43.1" height="43.1" as="geometry" />
        </mxCell>
        <mxCell id="OAmHXx_gSrP8fZYqgxq8-5" value="Blue" style="text;html=1;strokeColor=none;fillColor=none;align=center;verticalAlign=middle;whiteSpace=wrap;rounded=0;fontSize=16;fontColor=#666666;" parent="1h9FVR-ElhC1_D5CZvCe-2" vertex="1">
          <mxGeometry x="164" y="36.89999999999998" width="60" height="30" as="geometry" />
        </mxCell>
        <mxCell id="OAmHXx_gSrP8fZYqgxq8-7" value="" style="endArrow=classic;html=1;rounded=0;fontSize=16;fontColor=#666666;" parent="1h9FVR-ElhC1_D5CZvCe-2" edge="1">
          <mxGeometry width="50" height="50" relative="1" as="geometry">
            <mxPoint x="214" y="62.89999999999998" as="sourcePoint" />
            <mxPoint x="160" y="62.89999999999998" as="targetPoint" />
          </mxGeometry>
        </mxCell>
        <mxCell id="OAmHXx_gSrP8fZYqgxq8-8" value="Yellow" style="text;html=1;strokeColor=none;fillColor=none;align=center;verticalAlign=middle;whiteSpace=wrap;rounded=0;fontSize=16;fontColor=#666666;" parent="1h9FVR-ElhC1_D5CZvCe-2" vertex="1">
          <mxGeometry x="205.72000000000003" y="81.89999999999998" width="60" height="30" as="geometry" />
        </mxCell>
        <mxCell id="OAmHXx_gSrP8fZYqgxq8-9" value="" style="endArrow=classic;html=1;rounded=0;fontSize=16;fontColor=#666666;" parent="1h9FVR-ElhC1_D5CZvCe-2" edge="1">
          <mxGeometry width="50" height="50" relative="1" as="geometry">
            <mxPoint x="257.72" y="107.89999999999998" as="sourcePoint" />
            <mxPoint x="203.72000000000003" y="107.89999999999998" as="targetPoint" />
          </mxGeometry>
        </mxCell>
        <mxCell id="OAmHXx_gSrP8fZYqgxq8-10" value="Red" style="text;html=1;strokeColor=none;fillColor=none;align=center;verticalAlign=middle;whiteSpace=wrap;rounded=0;fontSize=16;fontColor=#666666;" parent="1h9FVR-ElhC1_D5CZvCe-2" vertex="1">
          <mxGeometry y="80.89999999999998" width="60" height="30" as="geometry" />
        </mxCell>
        <mxCell id="OAmHXx_gSrP8fZYqgxq8-11" value="" style="endArrow=none;html=1;rounded=0;fontSize=16;fontColor=#666666;endFill=0;startArrow=classic;startFill=1;" parent="1h9FVR-ElhC1_D5CZvCe-2" edge="1">
          <mxGeometry width="50" height="50" relative="1" as="geometry">
            <mxPoint x="64" y="106.89999999999998" as="sourcePoint" />
            <mxPoint x="10" y="106.89999999999998" as="targetPoint" />
          </mxGeometry>
        </mxCell>
        <mxCell id="OAmHXx_gSrP8fZYqgxq8-12" value="Green" style="text;html=1;strokeColor=none;fillColor=none;align=center;verticalAlign=middle;whiteSpace=wrap;rounded=0;fontSize=16;fontColor=#666666;" parent="1h9FVR-ElhC1_D5CZvCe-2" vertex="1">
          <mxGeometry x="40" y="128" width="60" height="30" as="geometry" />
        </mxCell>
        <mxCell id="OAmHXx_gSrP8fZYqgxq8-13" value="" style="endArrow=none;html=1;rounded=0;fontSize=16;fontColor=#666666;endFill=0;startArrow=classic;startFill=1;" parent="1h9FVR-ElhC1_D5CZvCe-2" edge="1">
          <mxGeometry width="50" height="50" relative="1" as="geometry">
            <mxPoint x="104" y="154" as="sourcePoint" />
            <mxPoint x="50" y="154" as="targetPoint" />
          </mxGeometry>
        </mxCell>
      </root>
    </mxGraphModel>
  </diagram>
  <diagram name="password module" id="AE4sVF44FmbL1xf2rLOP">
    <mxGraphModel dx="3354" dy="1887" grid="1" gridSize="10" guides="1" tooltips="1" connect="1" arrows="1" fold="1" page="1" pageScale="1" pageWidth="850" pageHeight="1100" math="0" shadow="0">
      <root>
        <mxCell id="KV7XuSe-PSa75_kSCzym-0" />
        <mxCell id="KV7XuSe-PSa75_kSCzym-1" parent="KV7XuSe-PSa75_kSCzym-0" />
        <mxCell id="Qc_sNxrhzeVH5PdN0loz-0" value="" style="group" parent="KV7XuSe-PSa75_kSCzym-1" vertex="1" connectable="0">
          <mxGeometry x="680" y="270" width="262.5" height="210" as="geometry" />
        </mxCell>
        <mxCell id="KV7XuSe-PSa75_kSCzym-2" value="" style="whiteSpace=wrap;html=1;movable=1;resizable=1;rotatable=1;deletable=1;editable=1;locked=0;connectable=1;imageAspect=1;" parent="Qc_sNxrhzeVH5PdN0loz-0" vertex="1">
          <mxGeometry width="262.5" height="209.99999999999994" as="geometry" />
        </mxCell>
        <mxCell id="KV7XuSe-PSa75_kSCzym-3" value="" style="ellipse;whiteSpace=wrap;html=1;aspect=fixed;sketch=0;strokeColor=#666666;opacity=60;" parent="Qc_sNxrhzeVH5PdN0loz-0" vertex="1">
          <mxGeometry x="236.25" y="13.125000000000044" width="13.124883333333335" height="13.124883333333335" as="geometry" />
        </mxCell>
        <mxCell id="XlWAhDfn488S-Nnxleks-0" value="" style="rounded=0;whiteSpace=wrap;html=1;shadow=0;sketch=0;strokeColor=#424242;fontSize=16;fontColor=#FF006F;fillColor=none;opacity=60;" parent="Qc_sNxrhzeVH5PdN0loz-0" vertex="1">
          <mxGeometry x="87.2554422705979" y="37.90000000000006" width="93.00082667401487" height="46.49999999999999" as="geometry" />
        </mxCell>
        <mxCell id="XlWAhDfn488S-Nnxleks-1" value="" style="rounded=0;whiteSpace=wrap;html=1;shadow=0;sketch=0;strokeColor=#424242;fontSize=16;fontColor=#FF006F;fillColor=none;opacity=60;" parent="Qc_sNxrhzeVH5PdN0loz-0" vertex="1">
          <mxGeometry x="48.505097823091695" y="99.90000000000006" width="170.50151556902728" height="38.74999999999999" as="geometry" />
        </mxCell>
        <mxCell id="XlWAhDfn488S-Nnxleks-2" value="" style="ellipse;whiteSpace=wrap;html=1;aspect=fixed;shadow=0;sketch=0;strokeColor=#424242;fontSize=16;fontColor=#FF006F;fillColor=none;opacity=60;" parent="Qc_sNxrhzeVH5PdN0loz-0" vertex="1">
          <mxGeometry x="76.40534582529615" y="113.85000000000005" width="10.849999999999998" height="10.849999999999998" as="geometry" />
        </mxCell>
        <mxCell id="XlWAhDfn488S-Nnxleks-3" value="" style="ellipse;whiteSpace=wrap;html=1;aspect=fixed;shadow=0;sketch=0;strokeColor=#424242;fontSize=16;fontColor=#FF006F;fillColor=none;opacity=60;" parent="Qc_sNxrhzeVH5PdN0loz-0" vertex="1">
          <mxGeometry x="111.28065582805174" y="113.85000000000005" width="10.849999999999998" height="10.849999999999998" as="geometry" />
        </mxCell>
        <mxCell id="XlWAhDfn488S-Nnxleks-4" value="" style="ellipse;whiteSpace=wrap;html=1;aspect=fixed;shadow=0;sketch=0;strokeColor=#424242;fontSize=16;fontColor=#FF006F;fillColor=none;opacity=60;" parent="Qc_sNxrhzeVH5PdN0loz-0" vertex="1">
          <mxGeometry x="145.3809589418572" y="113.85000000000005" width="10.849999999999998" height="10.849999999999998" as="geometry" />
        </mxCell>
        <mxCell id="XlWAhDfn488S-Nnxleks-5" value="" style="ellipse;whiteSpace=wrap;html=1;aspect=fixed;shadow=0;sketch=0;strokeColor=#424242;fontSize=16;fontColor=#FF006F;fillColor=none;opacity=60;" parent="Qc_sNxrhzeVH5PdN0loz-0" vertex="1">
          <mxGeometry x="180.25626894461277" y="113.85000000000005" width="10.849999999999998" height="10.849999999999998" as="geometry" />
        </mxCell>
        <mxCell id="XlWAhDfn488S-Nnxleks-6" value="" style="ellipse;whiteSpace=wrap;html=1;aspect=fixed;shadow=0;sketch=0;strokeColor=#424242;fontSize=16;fontColor=#FF006F;fillColor=none;opacity=60;" parent="Qc_sNxrhzeVH5PdN0loz-0" vertex="1">
          <mxGeometry x="172.50620005511152" y="157.25000000000006" width="38.74999999999999" height="38.74999999999999" as="geometry" />
        </mxCell>
        <mxCell id="XlWAhDfn488S-Nnxleks-7" value="&lt;font color=&quot;#666666&quot;&gt;S U B M I T&lt;/font&gt;" style="text;html=1;strokeColor=none;fillColor=none;align=center;verticalAlign=middle;whiteSpace=wrap;rounded=0;fontSize=16;fontColor=#FF006F;" parent="Qc_sNxrhzeVH5PdN0loz-0" vertex="1">
          <mxGeometry x="60" y="165" width="92.36" height="23.25" as="geometry" />
        </mxCell>
      </root>
    </mxGraphModel>
  </diagram>
  <diagram name="buttons-module" id="3DVeG3qoeshNUzCUiNHE">
    <mxGraphModel dx="3354" dy="1887" grid="1" gridSize="10" guides="1" tooltips="1" connect="1" arrows="1" fold="1" page="1" pageScale="1" pageWidth="850" pageHeight="1100" math="0" shadow="0">
      <root>
        <mxCell id="uRAur4nabJg9vzyXn6-z-0" />
        <mxCell id="uRAur4nabJg9vzyXn6-z-1" parent="uRAur4nabJg9vzyXn6-z-0" />
        <mxCell id="uRAur4nabJg9vzyXn6-z-2" value="" style="whiteSpace=wrap;html=1;movable=1;resizable=1;rotatable=1;deletable=1;editable=1;locked=0;connectable=1;imageAspect=1;container=0;" parent="uRAur4nabJg9vzyXn6-z-1" vertex="1">
          <mxGeometry x="720" y="257.1" width="262.59" height="212.89999999999995" as="geometry" />
        </mxCell>
        <mxCell id="uRAur4nabJg9vzyXn6-z-3" value="" style="ellipse;whiteSpace=wrap;html=1;aspect=fixed;sketch=0;strokeColor=#666666;opacity=60;container=0;" parent="uRAur4nabJg9vzyXn6-z-1" vertex="1">
          <mxGeometry x="956.3309999999999" y="270.40625000000006" width="13.1295" height="13.1295" as="geometry" />
        </mxCell>
        <mxCell id="T_HAxewFfzuqwqOM280m-0" value="" style="ellipse;whiteSpace=wrap;html=1;aspect=fixed;shadow=0;sketch=0;strokeColor=#424242;fontSize=16;fontColor=#FF006F;fillColor=none;opacity=60;container=0;" parent="uRAur4nabJg9vzyXn6-z-1" vertex="1">
          <mxGeometry x="829.7682639845686" y="277.45222619047627" width="46.51635633586584" height="46.51635633586584" as="geometry" />
        </mxCell>
        <mxCell id="T_HAxewFfzuqwqOM280m-1" value="" style="ellipse;whiteSpace=wrap;html=1;aspect=fixed;shadow=0;sketch=0;strokeColor=#424242;fontSize=16;fontColor=#FF006F;fillColor=none;opacity=60;container=0;" parent="uRAur4nabJg9vzyXn6-z-1" vertex="1">
          <mxGeometry x="837.5209900405463" y="285.3092500000001" width="31.010904223910558" height="31.010904223910558" as="geometry" />
        </mxCell>
        <mxCell id="T_HAxewFfzuqwqOM280m-5" value="" style="ellipse;whiteSpace=wrap;html=1;aspect=fixed;shadow=0;sketch=0;strokeColor=#424242;fontSize=16;fontColor=#FF006F;fillColor=none;opacity=60;container=0;" parent="uRAur4nabJg9vzyXn6-z-1" vertex="1">
          <mxGeometry x="892.5653450379875" y="319.88015476190486" width="46.51635633586584" height="46.51635633586584" as="geometry" />
        </mxCell>
        <mxCell id="T_HAxewFfzuqwqOM280m-6" value="" style="ellipse;whiteSpace=wrap;html=1;aspect=fixed;shadow=0;sketch=0;strokeColor=#424242;fontSize=16;fontColor=#FF006F;fillColor=none;opacity=60;container=0;" parent="uRAur4nabJg9vzyXn6-z-1" vertex="1">
          <mxGeometry x="900.3180710939652" y="327.7371785714287" width="31.010904223910558" height="31.010904223910558" as="geometry" />
        </mxCell>
        <mxCell id="T_HAxewFfzuqwqOM280m-8" value="" style="ellipse;whiteSpace=wrap;html=1;aspect=fixed;shadow=0;sketch=0;strokeColor=#424242;fontSize=16;fontColor=#FF006F;fillColor=none;opacity=60;container=0;" parent="uRAur4nabJg9vzyXn6-z-1" vertex="1">
          <mxGeometry x="766.1959103255521" y="319.0944523809525" width="46.51635633586584" height="46.51635633586584" as="geometry" />
        </mxCell>
        <mxCell id="T_HAxewFfzuqwqOM280m-9" value="" style="ellipse;whiteSpace=wrap;html=1;aspect=fixed;shadow=0;sketch=0;strokeColor=#424242;fontSize=16;fontColor=#FF006F;fillColor=none;opacity=60;container=0;" parent="uRAur4nabJg9vzyXn6-z-1" vertex="1">
          <mxGeometry x="773.9486363815297" y="326.9514761904763" width="31.010904223910558" height="31.010904223910558" as="geometry" />
        </mxCell>
        <mxCell id="T_HAxewFfzuqwqOM280m-14" value="" style="ellipse;whiteSpace=wrap;html=1;aspect=fixed;shadow=0;sketch=0;strokeColor=#424242;fontSize=16;fontColor=#FF006F;fillColor=none;opacity=60;container=0;" parent="uRAur4nabJg9vzyXn6-z-1" vertex="1">
          <mxGeometry x="789.454088493485" y="391.3790714285715" width="46.51635633586584" height="46.51635633586584" as="geometry" />
        </mxCell>
        <mxCell id="T_HAxewFfzuqwqOM280m-15" value="" style="ellipse;whiteSpace=wrap;html=1;aspect=fixed;shadow=0;sketch=0;strokeColor=#424242;fontSize=16;fontColor=#FF006F;fillColor=none;opacity=60;container=0;" parent="uRAur4nabJg9vzyXn6-z-1" vertex="1">
          <mxGeometry x="797.2068145494626" y="399.2360952380953" width="31.010904223910558" height="31.010904223910558" as="geometry" />
        </mxCell>
        <mxCell id="T_HAxewFfzuqwqOM280m-11" value="" style="ellipse;whiteSpace=wrap;html=1;aspect=fixed;shadow=0;sketch=0;strokeColor=#424242;fontSize=16;fontColor=#FF006F;fillColor=none;opacity=60;container=0;" parent="uRAur4nabJg9vzyXn6-z-1" vertex="1">
          <mxGeometry x="869.3071668700546" y="392.95047619047625" width="46.51635633586584" height="46.51635633586584" as="geometry" />
        </mxCell>
        <mxCell id="T_HAxewFfzuqwqOM280m-12" value="" style="ellipse;whiteSpace=wrap;html=1;aspect=fixed;shadow=0;sketch=0;strokeColor=#424242;fontSize=16;fontColor=#FF006F;fillColor=none;opacity=60;container=0;" parent="uRAur4nabJg9vzyXn6-z-1" vertex="1">
          <mxGeometry x="877.0598929260323" y="400.80750000000006" width="31.010904223910558" height="31.010904223910558" as="geometry" />
        </mxCell>
      </root>
    </mxGraphModel>
  </diagram>
</mxfile>
